<svg width="18" height="16" viewBox="0 0 18 16" fill="none" xmlns="http://www.w3.org/2000/svg">
<path d="M17.2744 14.8692L15.8427 12.4842C15.1827 11.3834 14.8335 10.1234 14.8335 8.83919V6.75001C14.8335 3.53419 12.216 0.916687 9.0002 0.916687C5.78438 0.916687 3.16688 3.53419 3.16688 6.75001V8.83919C3.16688 10.1234 2.8177 11.3834 2.1577 12.4842L0.726021 14.8692C0.648521 14.9975 0.646842 15.1584 0.720201 15.2884C0.794381 15.4192 0.933521 15.5 1.08352 15.5H16.9168C17.0668 15.5 17.206 15.4192 17.2802 15.2884C17.3535 15.1583 17.3519 14.9975 17.2744 14.8692ZM1.81938 14.6667L2.87188 12.9125C3.6102 11.6825 4.0002 10.2742 4.0002 8.83919V6.75001C4.0002 3.99251 6.2427 1.75001 9.0002 1.75001C11.7577 1.75001 14.0002 3.99251 14.0002 6.75001V8.83919C14.0002 10.2742 14.3902 11.6825 15.1277 12.9125L16.181 14.6667H1.81938Z" fill="#2D2D2D"/>
</svg>
