<svg width="100" height="100" viewBox="0 0 100 100" fill="none" xmlns="http://www.w3.org/2000/svg">
<g clip-path="url(#clip0)">
<path d="M12.5 62.5C5.60833 62.5 0 56.8917 0 50C0 43.1083 5.60833 37.5 12.5 37.5C19.3917 37.5 25 43.1083 25 50C25 56.8917 19.3917 62.5 12.5 62.5ZM12.5 41.6667C7.90417 41.6667 4.16667 45.4042 4.16667 50C4.16667 54.5958 7.90417 58.3333 12.5 58.3333C17.0958 58.3333 20.8333 54.5958 20.8333 50C20.8333 45.4042 17.0958 41.6667 12.5 41.6667Z" fill="#666572"/>
<path d="M50 62.5C43.1083 62.5 37.5 56.8917 37.5 50C37.5 43.1083 43.1083 37.5 50 37.5C56.8917 37.5 62.5 43.1083 62.5 50C62.5 56.8917 56.8917 62.5 50 62.5ZM50 41.6667C45.4042 41.6667 41.6667 45.4042 41.6667 50C41.6667 54.5958 45.4042 58.3333 50 58.3333C54.5958 58.3333 58.3333 54.5958 58.3333 50C58.3333 45.4042 54.5958 41.6667 50 41.6667Z" fill="#666572"/>
<path d="M87.5 62.5C80.6083 62.5 75 56.8917 75 50C75 43.1083 80.6083 37.5 87.5 37.5C94.3917 37.5 100 43.1083 100 50C100 56.8917 94.3917 62.5 87.5 62.5ZM87.5 41.6667C82.9042 41.6667 79.1667 45.4042 79.1667 50C79.1667 54.5958 82.9042 58.3333 87.5 58.3333C92.0958 58.3333 95.8333 54.5958 95.8333 50C95.8333 45.4042 92.0958 41.6667 87.5 41.6667Z" fill="#666572"/>
</g>
<defs>
<clipPath id="clip0">
<rect width="100" height="100" fill="white"/>
</clipPath>
</defs>
</svg>
