<svg width="100" height="100" viewBox="0 0 100 100" fill="none" xmlns="http://www.w3.org/2000/svg">
<path d="M85.5469 13.2164H66.9141V5.07812C66.9141 4.71552 66.77 4.36777 66.5136 4.11138C66.2572 3.85498 65.9095 3.71094 65.5469 3.71094H34.4531C34.0906 3.71114 33.743 3.85525 33.4866 4.11161C33.2303 4.36796 33.0861 4.71559 33.0859 5.07812V13.2164H14.4531C14.0905 13.2164 13.7428 13.3604 13.4864 13.6168C13.23 13.8732 13.0859 14.221 13.0859 14.5836V24.4594C13.0861 24.8219 13.2303 25.1695 13.4866 25.4259C13.743 25.6822 14.0906 25.8264 14.4531 25.8266H17.7516L21.4859 94.9953C21.5049 95.3447 21.6571 95.6735 21.9111 95.9142C22.1651 96.1548 22.5017 96.289 22.8516 96.2891H77.1484C77.4983 96.2892 77.8349 96.155 78.0888 95.9143C78.3428 95.6736 78.4947 95.3447 78.5133 94.9953L82.2484 25.8266H85.5469C85.9095 25.8266 86.2572 25.6825 86.5136 25.4261C86.77 25.1697 86.9141 24.822 86.9141 24.4594V14.5836C86.9142 14.404 86.8789 14.2262 86.8102 14.0603C86.7415 13.8944 86.6408 13.7436 86.5139 13.6166C86.3869 13.4896 86.2361 13.3889 86.0702 13.3203C85.9043 13.2516 85.7264 13.2163 85.5469 13.2164ZM35.8203 6.44531H64.1797V13.2164H35.8203V6.44531ZM75.8531 93.5547H24.1469L20.4898 25.8266H79.5109L75.8531 93.5547ZM84.1797 23.0922H15.8203V15.9508H34.4266H34.4531C34.4531 15.9508 34.4703 15.9508 34.4797 15.9508H65.5211H65.5469C65.5469 15.9508 65.5648 15.9508 65.5734 15.9508H84.1797V23.0922Z" fill="#202025"/>
<path d="M36.459 75.4367C36.8215 75.4365 37.1692 75.2924 37.4255 75.0361C37.6819 74.7797 37.826 74.4321 37.8262 74.0696V41.1461C37.8262 40.7835 37.6821 40.4358 37.4257 40.1794C37.1693 39.923 36.8216 39.7789 36.459 39.7789C36.0964 39.7789 35.7486 39.923 35.4922 40.1794C35.2358 40.4358 35.0918 40.7835 35.0918 41.1461V74.0696C35.0918 74.4322 35.2358 74.7799 35.4922 75.0363C35.7486 75.2927 36.0964 75.4367 36.459 75.4367Z" fill="#202025"/>
<path d="M50 75.4367C50.3625 75.4365 50.7102 75.2924 50.9665 75.0361C51.2229 74.7797 51.367 74.4321 51.3672 74.0696V41.1461C51.3672 40.7835 51.2231 40.4358 50.9667 40.1794C50.7103 39.923 50.3626 39.7789 50 39.7789C49.6374 39.7789 49.2896 39.923 49.0333 40.1794C48.7769 40.4358 48.6328 40.7835 48.6328 41.1461V74.0696C48.633 74.4321 48.7771 74.7797 49.0335 75.0361C49.2898 75.2924 49.6375 75.4365 50 75.4367Z" fill="#202025"/>
<path d="M63.541 75.4367C63.9036 75.4367 64.2514 75.2927 64.5078 75.0363C64.7642 74.7799 64.9082 74.4322 64.9082 74.0696V41.1461C64.9082 40.7835 64.7642 40.4358 64.5078 40.1794C64.2514 39.923 63.9036 39.7789 63.541 39.7789C63.1784 39.7789 62.8307 39.923 62.5743 40.1794C62.3179 40.4358 62.1738 40.7835 62.1738 41.1461V74.0696C62.1738 74.4322 62.3179 74.7799 62.5743 75.0363C62.8307 75.2927 63.1784 75.4367 63.541 75.4367Z" fill="#202025"/>
</svg>
