<svg width="572" height="432" viewBox="0 0 572 432" fill="none" xmlns="http://www.w3.org/2000/svg">
<path d="M531.901 295.554C540.993 208.877 401.773 23.1947 308.464 115.079C259.348 163.445 139.841 219.694 52.1029 248.49C-33.2101 276.491 143.047 415.968 275.539 428.965C408.032 441.961 522.809 382.231 531.901 295.554Z" fill="#FFF4F2"/>
<path d="M93.1086 360.203C98.2205 360.203 98.229 352.521 93.1086 352.521C87.9967 352.521 87.9883 360.203 93.1086 360.203ZM45.9333 184.098C51.0451 184.098 51.0536 176.415 45.9333 176.415C40.8214 176.415 40.8129 184.098 45.9333 184.098ZM126.555 73.1756C131.667 73.1756 131.675 65.4932 126.555 65.4932C121.443 65.4932 121.434 73.1756 126.555 73.1756Z" fill="#FFA574"/>
<path d="M126.555 73.1756C131.667 73.1756 131.675 65.4931 126.555 65.4931C121.443 65.4931 121.435 73.1756 126.555 73.1756ZM24.7868 355.818C29.8987 355.818 29.9071 348.136 24.7868 348.136C19.6749 348.136 19.6664 355.818 24.7868 355.818ZM271.738 7.68245C276.85 7.68245 276.858 0 271.738 0C266.626 0 266.617 7.68245 271.738 7.68245ZM220.935 302.727C226.047 302.727 226.055 295.045 220.935 295.045C215.823 295.045 215.815 302.727 220.935 302.727ZM85.0851 153.38C90.197 153.38 90.2055 145.698 85.0851 145.698C79.9733 145.698 79.9648 153.38 85.0851 153.38ZM120.333 397.534C125.445 397.534 125.454 389.851 120.333 389.851C115.222 389.851 115.213 397.534 120.333 397.534ZM397.774 363.677C402.886 363.677 402.895 355.995 397.774 355.995C392.663 355.995 392.654 363.677 397.774 363.677ZM412.555 63.4957C417.667 63.4957 417.676 55.8133 412.555 55.8133C407.443 55.8133 407.435 63.4957 412.555 63.4957ZM517.249 302.727C522.361 302.727 522.369 295.045 517.249 295.045C512.137 295.045 512.128 302.727 517.249 302.727ZM107.958 305.273C108.472 305.256 108.96 305.046 109.318 304.688C109.676 304.33 109.876 303.851 109.876 303.353C109.876 302.855 109.676 302.376 109.318 302.018C108.96 301.659 108.472 301.449 107.958 301.432C107.443 301.449 106.955 301.659 106.597 302.018C106.239 302.376 106.039 302.855 106.039 303.353C106.039 303.851 106.239 304.33 106.597 304.688C106.955 305.046 107.443 305.256 107.958 305.273ZM361.068 24.5566C361.582 24.5394 362.07 24.3295 362.428 23.9712C362.786 23.6129 362.986 23.1342 362.986 22.636C362.986 22.1379 362.786 21.6592 362.428 21.3009C362.07 20.9426 361.582 20.7327 361.068 20.7154C360.553 20.7327 360.065 20.9426 359.707 21.3009C359.349 21.6592 359.149 22.1379 359.149 22.636C359.149 23.1342 359.349 23.6129 359.707 23.9712C360.065 24.3295 360.553 24.5394 361.068 24.5566ZM296.799 152.544C297.313 152.527 297.801 152.317 298.159 151.958C298.517 151.6 298.717 151.121 298.717 150.623C298.717 150.125 298.517 149.646 298.159 149.288C297.801 148.93 297.313 148.72 296.799 148.703C296.284 148.72 295.796 148.93 295.438 149.288C295.08 149.646 294.88 150.125 294.88 150.623C294.88 151.121 295.08 151.6 295.438 151.958C295.796 152.317 296.284 152.527 296.799 152.544ZM329.608 313.57C330.122 313.553 330.61 313.343 330.968 312.985C331.326 312.627 331.526 312.148 331.526 311.65C331.526 311.152 331.326 310.673 330.968 310.315C330.61 309.956 330.122 309.747 329.608 309.729C329.093 309.747 328.605 309.956 328.247 310.315C327.889 310.673 327.689 311.152 327.689 311.65C327.689 312.148 327.889 312.627 328.247 312.985C328.605 313.343 329.093 313.553 329.608 313.57ZM255.248 414.518C255.762 414.501 256.25 414.291 256.608 413.932C256.966 413.574 257.166 413.095 257.166 412.597C257.166 412.099 256.966 411.62 256.608 411.262C256.25 410.904 255.762 410.694 255.248 410.677C254.733 410.694 254.245 410.904 253.887 411.262C253.529 411.62 253.329 412.099 253.329 412.597C253.329 413.095 253.529 413.574 253.887 413.932C254.245 414.291 254.733 414.501 255.248 414.518ZM482.618 411.752C483.132 411.735 483.62 411.525 483.978 411.167C484.336 410.809 484.536 410.33 484.536 409.832C484.536 409.333 484.336 408.855 483.978 408.496C483.62 408.138 483.132 407.928 482.618 407.911C482.103 407.928 481.615 408.138 481.257 408.496C480.899 408.855 480.699 409.333 480.699 409.832C480.699 410.33 480.899 410.809 481.257 411.167C481.615 411.525 482.103 411.735 482.618 411.752ZM299.578 227.834C300.092 227.817 300.58 227.607 300.938 227.249C301.296 226.891 301.496 226.412 301.496 225.914C301.496 225.416 301.296 224.937 300.938 224.579C300.58 224.22 300.092 224.01 299.578 223.993C299.063 224.01 298.575 224.22 298.217 224.579C297.859 224.937 297.659 225.416 297.659 225.914C297.659 226.412 297.859 226.891 298.217 227.249C298.575 227.607 299.063 227.817 299.578 227.834Z" fill="#FFA574"/>
<path d="M184.238 16.8991C184.753 16.8819 185.241 16.672 185.599 16.3137C185.956 15.9554 186.157 15.4767 186.157 14.9785C186.157 14.4804 185.956 14.0017 185.599 13.6434C185.241 13.2851 184.753 13.0752 184.238 13.0579C183.723 13.0752 183.235 13.2851 182.878 13.6434C182.52 14.0017 182.32 14.4804 182.32 14.9785C182.32 15.4767 182.52 15.9554 182.878 16.3137C183.235 16.672 183.723 16.8819 184.238 16.8991ZM49.7705 271.209C50.2854 271.192 50.7732 270.982 51.1311 270.624C51.489 270.265 51.689 269.787 51.689 269.288C51.689 268.79 51.489 268.312 51.1311 267.953C50.7732 267.595 50.2854 267.385 49.7705 267.368C49.2557 267.385 48.7679 267.595 48.41 267.953C48.0521 268.312 47.8521 268.79 47.8521 269.288C47.8521 269.787 48.0521 270.265 48.41 270.624C48.7679 270.982 49.2557 271.192 49.7705 271.209ZM293.689 60.6597C294.204 60.6425 294.692 60.4326 295.05 60.0743C295.407 59.716 295.607 59.2373 295.607 58.7391C295.607 58.2409 295.407 57.7622 295.05 57.4039C294.692 57.0456 294.204 56.8357 293.689 56.8185C293.174 56.8357 292.686 57.0456 292.328 57.4039C291.971 57.7622 291.771 58.2409 291.771 58.7391C291.771 59.2373 291.971 59.716 292.328 60.0743C292.686 60.4326 293.174 60.6425 293.689 60.6597ZM521.085 77.3951C521.6 77.3779 522.088 77.168 522.446 76.8097C522.804 76.4514 523.004 75.9727 523.004 75.4745C523.004 74.9764 522.804 74.4977 522.446 74.1394C522.088 73.7811 521.6 73.5712 521.085 73.5539C520.571 73.5712 520.083 73.7811 519.725 74.1394C519.367 74.4977 519.167 74.9764 519.167 75.4745C519.167 75.9727 519.367 76.4514 519.725 76.8097C520.083 77.168 520.571 77.3779 521.085 77.3951ZM194.733 286.395C195.248 286.377 195.736 286.167 196.093 285.809C196.451 285.451 196.651 284.972 196.651 284.474C196.651 283.976 196.451 283.497 196.093 283.139C195.736 282.78 195.248 282.571 194.733 282.553C194.218 282.571 193.73 282.78 193.372 283.139C193.014 283.497 192.814 283.976 192.814 284.474C192.814 284.972 193.014 285.451 193.372 285.809C193.73 286.167 194.218 286.377 194.733 286.395ZM407.853 258.51C408.368 258.493 408.856 258.283 409.214 257.925C409.572 257.566 409.772 257.088 409.772 256.59C409.772 256.091 409.572 255.613 409.214 255.254C408.856 254.896 408.368 254.686 407.853 254.669C407.338 254.686 406.85 254.896 406.493 255.254C406.135 255.613 405.935 256.091 405.935 256.59C405.935 257.088 406.135 257.566 406.493 257.925C406.85 258.283 407.338 258.493 407.853 258.51ZM446.16 18.8661C446.675 18.8489 447.163 18.639 447.52 18.2807C447.878 17.9224 448.078 17.4437 448.078 16.9455C448.078 16.4474 447.878 15.9687 447.52 15.6104C447.163 15.2521 446.675 15.0422 446.16 15.0249C445.645 15.0422 445.157 15.2521 444.799 15.6104C444.441 15.9687 444.241 16.4474 444.241 16.9455C444.241 17.4437 444.441 17.9224 444.799 18.2807C445.157 18.639 445.645 18.8489 446.16 18.8661ZM518.301 374.049C518.816 374.031 519.303 373.821 519.661 373.463C520.019 373.105 520.219 372.626 520.219 372.128C520.219 371.63 520.019 371.151 519.661 370.793C519.303 370.435 518.816 370.225 518.301 370.207C517.786 370.225 517.298 370.435 516.94 370.793C516.582 371.151 516.382 371.63 516.382 372.128C516.382 372.626 516.582 373.105 516.94 373.463C517.298 373.821 517.786 374.031 518.301 374.049Z" fill="#FFD1CA"/>
<path d="M234.231 60.0786V70.7192L228.62 73.046C228.62 73.046 230.43 99.9637 243.776 92.8959C257.123 85.828 260.715 73.9679 257.855 73.046L253.855 70.7192L253.371 60.5944L234.231 60.0786Z" fill="#FED4C0"/>
<path d="M384.31 112.913L338.987 119.66C336.936 119.967 334.84 119.823 332.854 119.24C330.869 118.656 329.045 117.648 327.517 116.289C305.69 96.8154 291.276 87.0788 282.514 82.2182C282.507 82.2151 282.501 82.2082 282.494 82.2057L282.486 82.2026C274.636 77.8503 258.025 72.3627 258.025 72.3627L258.194 73.1817L257.855 73.046C242.284 104.39 228.62 73.046 228.62 73.046C228.62 73.046 212.009 78.5337 204.159 82.886L204.151 82.8892C204.144 82.8916 204.138 82.8985 204.131 82.9016C195.369 87.7623 180.955 97.4988 159.128 116.972C157.6 118.331 155.776 119.34 153.791 119.923C151.805 120.507 149.709 120.65 147.658 120.343L102.335 113.596L93.2842 135.875L145.59 149.396C149.319 150.36 153.22 150.536 157.025 149.91C160.831 149.284 164.453 147.873 167.643 145.771L201.329 123.583L201.474 123.109C202.167 147.941 204.151 175.069 204.151 175.069L204.786 187.361H281.688L281.724 186.677H281.859L282.494 174.385C282.494 174.385 284.478 147.258 285.171 122.426L285.316 122.899L319.001 145.088C322.192 147.189 325.814 148.601 329.619 149.227C333.425 149.852 337.326 149.677 341.055 148.713L393.361 135.191L384.31 112.913Z" fill="#FABB05"/>
<path d="M262.843 36.7116C262.843 21.5219 254.449 9.20831 244.094 9.20831C233.739 9.20831 225.345 21.5219 225.345 36.7116L225.346 36.7232C225.305 36.7224 225.267 36.7116 225.226 36.7116C224.405 36.7084 223.591 36.8619 222.832 37.1635C222.072 37.4651 221.381 37.9088 220.8 38.4692C220.218 39.0295 219.756 39.6954 219.441 40.4287C219.126 41.162 218.964 41.9482 218.964 42.7423C218.964 43.5364 219.126 44.3226 219.441 45.0559C219.756 45.7892 220.218 46.4551 220.8 47.0155C221.381 47.5758 222.072 48.0195 222.832 48.3211C223.591 48.6227 224.405 48.7763 225.226 48.773C225.883 48.7648 226.535 48.6551 227.157 48.448C230.161 57.7587 236.606 64.2148 244.094 64.2148C251.574 64.2148 258.011 57.7737 261.02 48.4807C261.609 48.666 262.224 48.7646 262.843 48.773C264.492 48.7664 266.072 48.1281 267.236 46.9979C268.4 45.8676 269.054 44.3374 269.054 42.7423C269.054 41.1472 268.4 39.617 267.236 38.4867C266.072 37.3565 264.492 36.7182 262.843 36.7116Z" fill="#FED4C0"/>
<path d="M227.411 42.0892C227.411 42.0892 226.299 20.8857 234.084 16.2762C234.084 16.2762 236.944 12.7423 245.048 21.0393C253.151 29.3364 261.027 24.8896 261.027 24.8896C261.027 24.8896 263.002 39.1699 261.731 42.0892C261.731 42.0892 273.171 23.1904 260.619 13.5105C248.066 3.83064 241.234 7.21092 231.224 13.5105C231.224 13.5105 212.475 15.6616 227.411 42.0892Z" fill="#200100"/>
<path d="M242.908 38.1524C242.885 39.1058 242.789 40.0155 242.701 40.9145C242.6 41.7861 242.546 42.6622 242.539 43.5391C242.529 44.3863 242.689 45.1765 243.157 45.366C244.014 45.4832 244.887 45.3799 245.689 45.0665C245.354 45.4266 244.964 45.7344 244.532 45.9787C244.048 46.2796 243.47 46.4054 242.9 46.3338C242.576 46.2608 242.277 46.1098 242.03 45.8947C241.783 45.6797 241.597 45.4076 241.488 45.104C241.308 44.606 241.216 44.0823 241.216 43.5547C241.227 42.5915 241.388 41.6354 241.692 40.7182C241.967 39.8107 242.377 38.9465 242.908 38.1524ZM229.66 34.0126C229.66 34.0126 234.081 29.436 239.277 33.1984L229.66 34.0126ZM246.635 33.6165C246.635 33.6165 251.247 29.2197 256.279 33.1855L246.635 33.6165Z" fill="#200100"/>
<path d="M235.679 41.0717C236.425 41.0717 237.029 40.1946 237.029 39.1127C237.029 38.0307 236.425 37.1536 235.679 37.1536C234.933 37.1536 234.328 38.0307 234.328 39.1127C234.328 40.1946 234.933 41.0717 235.679 41.0717Z" fill="#200100"/>
<path d="M251.091 40.5339C251.837 40.5339 252.441 39.6568 252.441 38.5749C252.441 37.4929 251.837 36.6158 251.091 36.6158C250.345 36.6158 249.74 37.4929 249.74 38.5749C249.74 39.6568 250.345 40.5339 251.091 40.5339Z" fill="#200100"/>
<path d="M221.299 43.8886C221.261 43.3444 221.399 42.8022 221.695 42.3381C221.998 41.8308 222.46 41.4307 223.015 41.1965C223.308 41.076 223.623 41.0161 223.941 41.0205C224.259 41.0249 224.573 41.0936 224.862 41.2221C225.393 41.444 225.821 41.846 226.066 42.3524C225.491 42.2943 225.03 42.1843 224.607 42.1898C224.233 42.167 223.86 42.2322 223.518 42.3799C222.716 42.7898 221.97 43.2968 221.299 43.8886ZM267.112 43.8886C266.442 43.2968 265.696 42.7899 264.893 42.38C264.552 42.2323 264.178 42.1671 263.805 42.1899C263.382 42.1843 262.921 42.2943 262.346 42.3525C262.591 41.8461 263.019 41.444 263.55 41.2222C263.839 41.0937 264.152 41.025 264.47 41.0206C264.789 41.0162 265.104 41.0761 265.397 41.1966C265.952 41.4308 266.414 41.8309 266.716 42.3382C267.013 42.8022 267.151 43.3444 267.112 43.8886ZM234.883 60.6558C237.504 62.3071 240.522 63.2748 243.644 63.4649C245.171 63.5352 246.7 63.3564 248.166 62.9359C248.918 62.7363 249.657 62.4905 250.378 62.2001C251.113 61.9194 251.799 61.5324 252.565 61.2379C251.976 61.784 251.349 62.2902 250.688 62.7528C250.002 63.1997 249.27 63.5774 248.504 63.88C246.954 64.5224 245.274 64.8176 243.59 64.7434C241.909 64.6776 240.262 64.2718 238.753 63.5524C237.265 62.8644 235.945 61.8768 234.883 60.6558Z" fill="#200100"/>
<path d="M233.994 48.7821C234.509 48.7648 234.997 48.5549 235.355 48.1966C235.713 47.8383 235.913 47.3596 235.913 46.8614C235.913 46.3633 235.713 45.8846 235.355 45.5263C234.997 45.168 234.509 44.9581 233.994 44.9408C233.479 44.9581 232.992 45.168 232.634 45.5263C232.276 45.8846 232.076 46.3633 232.076 46.8614C232.076 47.3596 232.276 47.8383 232.634 48.1966C232.992 48.5549 233.479 48.7648 233.994 48.7821ZM253.855 47.5529C254.37 47.5356 254.858 47.3257 255.216 46.9674C255.574 46.6091 255.774 46.1304 255.774 45.6323C255.774 45.1341 255.574 44.6554 255.216 44.2971C254.858 43.9388 254.37 43.7289 253.855 43.7116C253.34 43.7289 252.853 43.9388 252.495 44.2971C252.137 44.6554 251.937 45.1341 251.937 45.6323C251.937 46.1304 252.137 46.6091 252.495 46.9674C252.853 47.3257 253.34 47.5356 253.855 47.5529Z" fill="#602922"/>
<path d="M238.131 52.6296C238.131 52.6296 244.684 59.9666 250.359 50.6091L238.131 52.6296Z" fill="#200100"/>
<path d="M207.011 187.361V398.782H236.247L240.06 214.403H247.687L262.305 398.782H291.54L278.829 187.361H207.011Z" fill="#FA81A2"/>
<path d="M268.66 406.157C268.66 406.157 260.715 427.668 267.389 430.741H274.062C274.062 430.741 277.24 422.136 281.689 430.741H322.364C322.364 430.741 324.906 423.98 315.055 420.907C305.204 417.834 288.68 406.157 288.68 406.157H268.66Z" fill="#2C66BF"/>
<path d="M267.389 398.782L268.66 406.157H288.68V398.782H267.389Z" fill="#FED4C0"/>
<path d="M231.33 406.157C231.33 406.157 239.274 427.668 232.601 430.741H225.927C225.927 430.741 222.75 422.136 218.301 430.741H177.625C177.625 430.741 175.083 423.98 184.934 420.907C194.785 417.834 211.31 406.157 211.31 406.157H231.33Z" fill="#2C66BF"/>
<path d="M232.602 398.782L231.331 406.157H211.311V398.782H232.602Z" fill="#FED4C0"/>
<path d="M250.32 213.877C248.194 214.328 246.021 214.543 243.845 214.516C241.668 214.546 239.496 214.331 237.37 213.877C239.496 213.422 241.668 213.207 243.845 213.236C246.021 213.21 248.194 213.425 250.32 213.877Z" fill="#E06C96"/>
<path d="M206.353 150.623C206.644 152.582 207.095 154.515 207.701 156.405C207.968 157.355 208.334 158.277 208.644 159.211L209.802 161.933C211.444 165.508 213.653 168.814 216.348 171.732C219.013 174.669 222.167 177.155 225.681 179.085C227.425 180.092 229.248 180.966 231.133 181.698C232.999 182.495 234.989 182.971 236.918 183.686C235.914 183.485 234.91 183.271 233.906 183.044L232.396 182.707L231.639 182.539L230.91 182.288C228.941 181.656 227.028 180.873 225.189 179.947C221.452 178.126 218.114 175.624 215.357 172.58C212.57 169.565 210.372 166.086 208.868 162.313C207.329 158.589 206.478 154.632 206.353 150.623ZM215.494 154.053C216.2 155.91 217.057 157.711 218.055 159.438C218.52 160.314 219.076 161.142 219.58 161.993L221.298 164.423C223.672 167.591 226.542 170.381 229.805 172.694C233.043 175.032 236.662 176.83 240.514 178.012C242.436 178.647 244.407 179.136 246.408 179.474C248.404 179.878 250.454 179.944 252.494 180.257C251.469 180.262 250.441 180.254 249.409 180.233L247.86 180.207L247.084 180.195L246.316 180.095C244.255 179.873 242.216 179.491 240.218 178.954C236.171 177.923 232.369 176.147 229.018 173.723C225.645 171.333 222.747 168.372 220.465 164.983C218.161 161.648 216.479 157.949 215.494 154.053Z" fill="#EDA606"/>
<path d="M271.738 102.768H249.275V129.862H271.738V102.768Z" fill="#EDA606"/>
<path d="M465.701 60.0493V71.9703L470.773 73.0459C470.773 73.0459 469.502 99.9344 456.155 92.8666C442.809 85.7987 438.678 73.9677 441.538 73.0459L445.986 71.663L446.56 60.5651L465.701 60.0493Z" fill="#ECA085"/>
<path d="M437.089 36.6823C437.089 21.4926 445.483 9.17899 455.838 9.17899C466.192 9.17899 474.587 21.4926 474.587 36.6823L474.586 36.6938C474.627 36.693 474.665 36.6823 474.706 36.6823C475.527 36.679 476.341 36.8326 477.1 37.1342C477.86 37.4358 478.55 37.8795 479.132 38.4398C479.714 39.0001 480.176 39.6661 480.491 40.3994C480.806 41.1327 480.968 41.9189 480.968 42.713C480.968 43.507 480.806 44.2933 480.491 45.0266C480.176 45.7599 479.714 46.4258 479.132 46.9861C478.55 47.5464 477.86 47.9901 477.1 48.2917C476.341 48.5933 475.527 48.7469 474.706 48.7436C474.048 48.7355 473.396 48.6258 472.775 48.4187C469.77 57.7293 463.326 64.1854 455.838 64.1854C448.358 64.1854 441.92 57.7443 438.911 48.4514C438.322 48.6367 437.708 48.7352 437.089 48.7436C436.268 48.7469 435.454 48.5933 434.694 48.2917C433.935 47.9901 433.244 47.5464 432.662 46.9861C432.081 46.4258 431.619 45.7599 431.304 45.0266C430.989 44.2933 430.827 43.507 430.827 42.713C430.827 41.9189 430.989 41.1327 431.304 40.3994C431.619 39.6661 432.081 39.0001 432.662 38.4398C433.244 37.8795 433.935 37.4358 434.694 37.1342C435.454 36.8326 436.268 36.679 437.089 36.6823Z" fill="#ECA085"/>
<path d="M472.521 42.0599C472.521 42.0599 473.633 20.8564 465.848 16.2469C465.848 16.2469 462.988 12.713 454.884 21.01C446.781 29.3071 438.905 24.8603 438.905 24.8603C438.905 24.8603 436.93 39.1406 438.201 42.0599C438.201 42.0599 426.761 23.1611 439.313 13.4812C451.865 3.80131 458.698 7.18159 468.708 13.4812C468.708 13.4812 487.456 15.6323 472.521 42.0599Z" fill="#200100"/>
<path d="M457.023 38.123C457.554 38.9172 457.964 39.7814 458.24 40.6888C458.544 41.6061 458.704 42.5622 458.716 43.5254C458.716 44.0529 458.623 44.5767 458.443 45.0747C458.335 45.3783 458.148 45.6503 457.901 45.8654C457.654 46.0804 457.355 46.2315 457.032 46.3044C456.461 46.376 455.883 46.2502 455.399 45.9493C454.967 45.705 454.577 45.3973 454.243 45.0371C455.045 45.3506 455.918 45.4539 456.774 45.3366C457.242 45.1471 457.402 44.3569 457.393 43.5098C457.385 42.6328 457.331 41.7568 457.231 40.8852C457.143 39.9861 457.047 39.0764 457.023 38.123ZM470.292 31.9542C470.292 31.9542 464.31 29.5543 461.186 35.0574L470.292 31.9542ZM452.577 35.3346C452.577 35.3346 450.068 29.5613 443.846 31.3519L452.577 35.3346Z" fill="#200100"/>
<path d="M464.252 41.0422C464.998 41.0422 465.603 40.1651 465.603 39.0832C465.603 38.0013 464.998 37.1242 464.252 37.1242C463.506 37.1242 462.901 38.0013 462.901 39.0832C462.901 40.1651 463.506 41.0422 464.252 41.0422Z" fill="#200100"/>
<path d="M448.84 40.5044C449.586 40.5044 450.19 39.6274 450.19 38.5454C450.19 37.4635 449.586 36.5864 448.84 36.5864C448.094 36.5864 447.489 37.4635 447.489 38.5454C447.489 39.6274 448.094 40.5044 448.84 40.5044Z" fill="#200100"/>
<path d="M478.632 43.8592C477.962 43.2674 477.216 42.7605 476.413 42.3506C476.072 42.2029 475.698 42.1377 475.325 42.1605C474.902 42.1549 474.441 42.265 473.866 42.3232C474.111 41.8168 474.539 41.4147 475.07 41.1928C475.359 41.0643 475.673 40.9956 475.991 40.9912C476.309 40.9868 476.624 41.0468 476.917 41.1672C477.472 41.4014 477.934 41.8015 478.236 42.3088C478.533 42.7729 478.671 43.3151 478.632 43.8592ZM432.819 43.8592C432.781 43.3151 432.919 42.7728 433.215 42.3087C433.518 41.8014 433.98 41.4013 434.535 41.1671C434.828 41.0467 435.143 40.9867 435.461 40.9911C435.779 40.9955 436.093 41.0642 436.382 41.1927C436.913 41.4146 437.341 41.8167 437.586 42.3231C437.011 42.2649 436.55 42.1549 436.127 42.1605C435.753 42.1376 435.38 42.2028 435.038 42.3505C434.236 42.7605 433.49 43.2674 432.819 43.8592ZM465.049 60.6264C463.987 61.8474 462.667 62.8352 461.178 63.5236C459.67 64.2426 458.022 64.6481 456.342 64.714C454.657 64.7885 452.977 64.4933 451.427 63.8506C450.662 63.548 449.93 63.1703 449.244 62.7234C448.583 62.2608 447.956 61.7546 447.367 61.2085C448.133 61.503 448.819 61.89 449.554 62.1707C450.274 62.4611 451.013 62.7069 451.766 62.9065C453.232 63.327 454.76 63.5058 456.288 63.4355C459.41 63.2454 462.428 62.2777 465.049 60.6264ZM461.743 50.4718C461.743 50.4718 458.061 58.5383 450.673 51.8546L461.743 50.4718Z" fill="#200100"/>
<path d="M520.873 205.617L525.9 234.038C526.169 235.562 526.111 237.124 525.728 238.625C525.345 240.126 524.645 241.534 523.674 242.762L513.592 255.498C513.324 255.838 512.978 256.113 512.582 256.302C512.185 256.491 511.749 256.59 511.307 256.59C510.544 256.59 509.812 256.297 509.273 255.775C508.733 255.253 508.43 254.545 508.43 253.807C508.43 252.35 508.933 250.934 509.859 249.784L517.592 240.182C517.592 240.182 516.574 227.056 516.348 229.025L512.34 235.345C512.155 235.637 511.897 235.878 511.59 236.047C511.283 236.216 510.936 236.307 510.583 236.311C510.23 236.316 509.881 236.234 509.569 236.073C509.258 235.912 508.993 235.678 508.801 235.391C508.554 235.035 508.431 234.612 508.451 234.184C508.551 232.603 509.013 231.064 509.802 229.676L510.919 227.713C510.919 227.713 508.43 213.056 511.597 205.618L520.873 205.617Z" fill="#ECA085"/>
<path d="M454.087 98.455L457.453 109.421L420.704 156.112C415 163.517 404.262 163.161 399.485 153.848C399.485 153.848 399.122 147.059 400.079 145.062C404.381 136.081 409.07 134.962 416.51 128.927L454.087 98.455Z" fill="#8C4D3E"/>
<path d="M455.411 99.7354L458.777 110.702L422.028 157.392C416.324 164.797 405.586 164.442 400.809 155.129C400.809 155.129 400.447 148.339 401.403 146.342C405.705 137.361 410.394 136.242 417.835 130.208L455.411 99.7354Z" fill="#8C4D3E"/>
<path d="M370.644 128.42C370.644 128.42 370.388 123.492 362.452 115.777C354.516 108.062 347.42 102.808 351.583 109.338L354.841 114.264C354.841 114.264 346.367 111.198 341.484 108.944C340.199 108.326 338.742 108.124 337.329 108.367C335.916 108.61 334.621 109.285 333.635 110.294C331.829 112.222 331.91 114.307 337.001 117.95C344.614 123.397 356.405 131.689 358.692 132.502C359.484 132.783 370.644 128.42 370.644 128.42Z" fill="#B86A4B"/>
<path d="M418.022 187.361H494.607L495.242 175.069L506.047 217.476L526.067 214.403C520.565 151.891 507.788 111.447 501.094 93.761C499.888 90.577 498.011 87.6697 495.583 85.2231C493.155 82.7765 490.228 80.8438 486.988 79.5472L470.773 73.0458C470.773 73.0458 457.109 104.39 441.538 73.0458L425.323 79.5472C418.772 82.174 410.291 87.1455 407.853 93.5861C404.823 101.593 399.139 119.164 394.844 127.291C394.561 127.824 394.162 128.291 393.673 128.659C393.184 129.026 392.617 129.286 392.013 129.419C391.409 129.552 390.783 129.555 390.177 129.428C389.572 129.301 389.003 129.048 388.51 128.685L364.433 114.793L355.166 132.093L385.849 156.738C389.917 159.445 394.922 160.499 399.786 159.673C404.65 158.847 408.984 156.206 411.854 152.32L417.069 145.261L417.704 187.361H494.289" fill="#4285F4"/>
<path d="M359.803 116.511C358.902 116.318 358.029 116.023 357.202 115.63C356.369 115.253 355.577 114.795 354.841 114.264C355.308 114.303 355.768 114.396 356.213 114.539C356.653 114.672 357.082 114.835 357.498 115.028C358.34 115.404 359.118 115.905 359.803 116.511ZM348.132 115.134C347.058 114.798 346.005 114.401 344.98 113.944C343.947 113.505 342.945 113.003 341.958 112.471C340.971 111.938 340.016 111.35 339.101 110.708C338.172 110.078 337.318 109.351 336.553 108.541C338.42 109.768 340.347 110.83 342.297 111.891C344.238 112.964 346.205 113.991 348.132 115.134ZM343.566 119.584C342.558 119.353 341.571 119.046 340.613 118.666C339.65 118.297 338.71 117.874 337.799 117.399C335.953 116.472 334.282 115.25 332.857 113.784C333.732 114.324 334.584 114.863 335.463 115.364C336.351 115.852 337.226 116.351 338.127 116.813L343.566 119.584ZM346.07 117.671C344.874 117.363 343.701 116.978 342.558 116.519C341.409 116.07 340.289 115.556 339.203 114.978C338.107 114.407 337.066 113.742 336.092 112.991C335.083 112.273 334.244 111.353 333.635 110.294C334.44 111.181 335.374 111.951 336.408 112.579C337.422 113.224 338.461 113.837 339.536 114.395C341.669 115.543 343.873 116.574 346.07 117.671Z" fill="#160B07"/>
<path d="M374.699 393.693L377.433 409.095L397.1 423.154C397.1 423.154 373.982 431.221 362.303 419.236L364.687 408.634L359.205 395.036L374.699 393.693ZM301.843 393.693L301.758 409.095L282.091 423.154C282.091 423.154 305.209 431.221 316.887 419.236L314.504 408.634L317.338 395.036L301.843 393.693Z" fill="#8C4D3E"/>
<path d="M337.524 169.07L327.891 185.747C321.232 197.276 316.765 209.865 314.703 222.919L288.047 397.835L386.122 395.036L391.684 229.127C392.34 214.331 389.484 199.588 383.334 186.026C380.604 179.885 376.946 174.171 372.479 169.07L337.524 169.07Z" fill="#DF382B"/>
<path d="M327.115 56.7583C327.275 58.9285 328.132 58.982 328.656 61.4016C329.412 64.8933 327.809 65.6257 328.571 68.421C329.005 70.011 329.569 69.9431 332.454 73.9011C335.43 77.985 334.779 77.989 336.342 79.6233C339.096 82.5031 340.346 81.6836 343.47 84.79C345.539 86.8471 345.303 87.5168 347.586 89.539C349.104 90.7546 350.72 91.8519 352.418 92.8204C358.289 96.6005 358.646 96.9683 360.029 97.2507C362.169 97.603 364.366 97.4531 366.434 96.8136C368.756 96.242 368.82 95.7528 372.722 94.3093C376.723 92.8286 376.962 93.2298 378.429 92.2478C380.642 90.7663 380.173 89.8038 382.822 87.5533C385.326 85.4267 386.027 86.0464 387.5 84.3046C389.381 82.0826 388.434 80.8454 390.376 78.9177C391.849 77.4561 392.727 77.8363 394.316 76.169C395.222 75.0538 395.952 73.8144 396.481 72.4916C398.616 68.5582 399.549 68.9887 400.835 66.1043C401.524 64.5585 401.082 64.8259 402.443 60.0193C403.525 56.2026 403.726 56.3085 403.828 55.0695C404.139 51.3179 402.232 51.1107 402.921 48.3935C403.339 46.744 404.498 45.0215 403.838 42.6957L403.838 42.695C403.214 38.3567 402.756 35.1783 400.288 32.2383C398.953 30.6482 398.711 31.1301 394.666 27.2804C392.104 24.8417 391.562 24.0399 389.812 23.0315C387.526 21.7145 387.123 22.3175 384.258 20.976C380.544 19.2366 380.642 17.9516 377.659 17.0076C375.693 16.3856 375.674 16.9508 371.889 16.4086C367.088 15.7208 366.921 14.783 364.509 15.0143C361.926 15.262 361.637 16.3828 357.9 17.4425C354.778 18.3277 354.293 17.4496 351.911 18.3212C349.489 19.2074 349.712 20.0399 346.736 21.56C343.21 23.3614 342.188 22.5555 340.541 24.1162C338.897 25.6736 339.725 26.6563 337.92 29.7395C336.445 32.259 335.723 31.8916 333.293 35.165C331.912 37.1051 330.705 39.1556 329.684 41.2941C328.682 42.8763 327.962 44.6099 327.553 46.4227C327.291 48.5679 328.042 48.8013 327.922 51.4963C327.797 54.313 326.953 54.576 327.115 56.7583Z" fill="#200100"/>
<path d="M344.252 66.3572C344.277 66.3566 344.299 66.3636 344.324 66.3634C344.766 54.0645 352.821 44.191 362.955 43.9679C373.09 43.7448 381.601 53.2537 382.621 65.5203C382.646 65.5195 382.668 65.5115 382.693 65.5109C384.224 65.6375 385.653 66.3065 386.705 67.3896C387.757 68.4728 388.359 69.8936 388.394 71.3793C388.429 72.865 387.895 74.3108 386.895 75.4392C385.895 76.5675 384.499 77.2987 382.975 77.4925C382.372 77.4974 381.773 77.3968 381.206 77.1954C379.096 83.3055 374.953 88.086 369.789 90.2196L369.808 90.2214L369.965 105.443L369.274 116.601L353.434 115.489L353.763 105.8L355.011 88.8752L355.053 88.879C351.016 86.2233 347.948 82.4037 346.287 77.9641C345.731 78.1902 345.137 78.3171 344.534 78.3387C343.003 78.2122 341.574 77.5431 340.522 76.46C339.469 75.3768 338.868 73.956 338.833 72.4703C338.798 70.9846 339.332 69.5388 340.332 68.4104C341.332 67.2821 342.728 66.5509 344.252 66.3571V66.3572ZM306.682 219.778L303.879 239.912C303.734 241.002 303.844 242.11 304.201 243.154C304.558 244.197 305.153 245.15 305.943 245.941L314.253 254.472C314.487 254.704 314.771 254.885 315.084 255.001C315.397 255.117 315.733 255.167 316.067 255.146C316.632 255.143 317.172 254.924 317.57 254.537C317.969 254.149 318.192 253.626 318.192 253.08C318.128 252.041 317.679 251.059 316.928 250.315L310.56 243.889C310.56 243.889 310.843 234.643 311.094 236.015L314.447 240.287C314.616 240.486 314.831 240.645 315.074 240.75C315.317 240.856 315.582 240.905 315.849 240.895C316.115 240.884 316.375 240.814 316.608 240.689C316.842 240.565 317.042 240.39 317.194 240.178C317.37 239.925 317.449 239.621 317.418 239.317C317.275 238.202 316.856 237.136 316.197 236.21L315.255 234.877C315.255 234.877 316.619 224.498 313.876 219.408L306.682 219.778Z" fill="#8C4D3E"/>
<path d="M311.123 153.306L305.449 229.299L315.073 225.111L327.336 160.165L311.123 153.306Z" fill="#8C4D3E"/>
<path d="M309.77 165.459L312.98 124.909C313.249 121.522 314.346 118.246 316.181 115.351C318.015 112.455 320.536 110.022 323.533 108.253C327.049 106.169 330.861 104.594 334.848 103.579C341.031 102.161 347.364 101.451 353.719 101.464C353.719 101.464 360.392 119.288 369.925 101.464L383.08 105.751C386.861 106.983 390.339 108.954 393.298 111.542C396.258 114.131 398.634 117.28 400.28 120.795L414.495 143.412L403.169 156.829L384.05 144.01L372.468 169.07H337.512L329.791 143.412L326.978 165.459L309.77 165.459Z" fill="#34A853"/>
<path d="M153.184 56.8181C158.564 56.8181 162.925 52.6007 162.925 47.3982C162.925 42.1957 158.564 37.9782 153.184 37.9782C147.804 37.9782 143.442 42.1957 143.442 47.3982C143.442 52.6007 147.804 56.8181 153.184 56.8181Z" fill="#200100"/>
<path d="M109.22 58.7387C114.6 58.7387 118.961 54.5213 118.961 49.3188C118.961 44.1163 114.6 39.8988 109.22 39.8988C103.84 39.8988 99.479 44.1163 99.479 49.3188C99.479 54.5213 103.84 58.7387 109.22 58.7387Z" fill="#200100"/>
<path d="M152.15 69.3485C152.126 69.3472 152.102 69.3534 152.078 69.3524C152.052 57.0461 144.335 46.9232 134.214 46.3799C124.092 45.8366 115.264 55.0713 113.83 67.2992C113.805 67.2976 113.783 67.2889 113.758 67.2876C112.224 67.3656 110.773 67.9891 109.685 69.0384C108.596 70.0877 107.947 71.4888 107.862 72.9726C107.777 74.4564 108.262 75.9183 109.223 77.0776C110.185 78.2369 111.555 79.0119 113.071 79.2537C113.674 79.2778 114.276 79.1962 114.849 79.0128C115.644 86.6023 117.6 91.3238 125.713 94.7434L125.129 107.601L125.443 118.774L141.312 118.164L141.892 108.124L140.721 94.5222C147.267 92.9163 149.593 83.6379 149.724 80.8849C150.272 81.1284 150.861 81.274 151.463 81.3146C152.998 81.2366 154.449 80.613 155.537 79.5638C156.625 78.5145 157.274 77.1134 157.359 75.6296C157.444 74.1458 156.96 72.6839 155.998 71.5246C155.037 70.3653 153.666 69.5903 152.15 69.3485H152.15Z" fill="#B86A4B"/>
<path d="M127.665 95.899C129.602 95.8971 131.406 96.0021 133.208 95.9571C134.107 95.9402 134.991 95.8633 135.885 95.7664C136.799 95.6292 137.705 95.4442 138.598 95.2125C137.914 95.9027 137.069 96.425 136.134 96.7362C135.201 97.0391 134.226 97.2078 133.241 97.237C132.269 97.2491 131.299 97.1472 130.352 96.9337C129.403 96.7346 128.496 96.3849 127.665 95.899ZM131.385 70.6959C131.307 71.6462 131.159 72.5496 131.02 73.4424C130.87 74.3073 130.766 75.1792 130.708 76.0544C130.65 76.8997 130.764 77.6968 131.221 77.9119C132.069 78.0746 132.947 78.0184 133.765 77.7487C133.411 78.09 133.003 78.3762 132.558 78.5971C132.058 78.8715 131.473 78.9661 130.908 78.8641C130.589 78.774 130.299 78.6071 130.065 78.3792C129.831 78.1512 129.66 77.8695 129.569 77.5605C129.418 77.0536 129.356 76.5256 129.386 75.9988C129.452 75.0379 129.667 74.0922 130.024 73.1929C130.351 72.3015 130.809 71.4605 131.385 70.6959ZM117.704 64.9939C117.704 64.9939 122.514 60.8004 127.358 64.9794L117.704 64.9939ZM135.555 65.3556C135.555 65.3556 139.904 60.7154 145.158 64.4018L135.555 65.3556ZM126.127 81.977C126.127 81.977 130.406 90.7441 138.468 83.1999L126.127 81.977Z" fill="#200100"/>
<path d="M125.461 71.3399C125.523 70.2596 124.969 69.3515 124.224 69.3115C123.48 69.2715 122.826 70.1149 122.764 71.1951C122.702 72.2754 123.255 73.1836 124 73.2235C124.745 73.2635 125.399 72.4202 125.461 71.3399Z" fill="#200100"/>
<path d="M140.88 71.6293C140.942 70.549 140.388 69.6409 139.643 69.6009C138.899 69.5609 138.245 70.4043 138.183 71.4845C138.121 72.5648 138.674 73.473 139.419 73.5129C140.164 73.5529 140.818 72.7096 140.88 71.6293Z" fill="#200100"/>
<path d="M155.297 76.4421C154.661 75.8154 153.946 75.2694 153.168 74.8173C152.835 74.6512 152.466 74.566 152.092 74.5691C151.67 74.5409 151.204 74.6254 150.626 74.6528C150.9 74.1604 151.35 73.7819 151.893 73.5888C152.189 73.4759 152.506 73.4241 152.824 73.4369C153.141 73.4496 153.453 73.5265 153.738 73.6626C154.279 73.9259 154.718 74.3502 154.99 74.873C155.26 75.3522 155.367 75.9009 155.297 76.4421ZM109.554 73.9869C109.547 73.4416 109.716 72.9076 110.039 72.4602C110.37 71.9697 110.854 71.5948 111.422 71.3905C111.721 71.286 112.039 71.243 112.357 71.2645C112.674 71.2859 112.983 71.3712 113.264 71.5149C113.781 71.7651 114.186 72.1893 114.402 72.7078C113.831 72.619 113.377 72.4852 112.954 72.4677C112.583 72.4246 112.206 72.4697 111.857 72.599C111.032 72.9655 110.258 73.4319 109.554 73.9869ZM119.14 57.5718C124.894 57.65 123.969 53.5142 124.698 50.1493C124.698 50.1493 128.119 57.7845 134.915 50.6978C136.463 49.0841 135.595 61.2635 143.525 52.7639C144.753 51.4478 145.759 55.1228 147.318 58.0495C148.254 59.8056 149.389 61.2922 150.89 61.2696L150.769 72.1596C150.769 72.1596 166.913 45.5556 132.104 40.1478C128.352 39.6449 124.53 40.187 121.085 41.7106C103.832 50.3024 109.405 66.6287 115.775 73.7355C115.775 73.7355 112.661 57.4839 119.14 57.5718Z" fill="#200100"/>
<path d="M130.672 41.3405L127.903 37.6139C127.903 37.6139 121.299 38.2982 125.133 35.9649C128.967 33.6315 129.694 35.5172 129.654 36.2076L130.672 41.3405Z" fill="#200100"/>
<path d="M188.56 222.289L191.363 242.423C191.508 243.513 191.398 244.621 191.041 245.665C190.684 246.709 190.089 247.661 189.299 248.453L180.989 256.983C180.755 257.215 180.471 257.396 180.158 257.512C179.845 257.629 179.509 257.678 179.175 257.657C178.61 257.654 178.07 257.435 177.671 257.048C177.273 256.661 177.05 256.137 177.05 255.591C177.114 254.552 177.563 253.571 178.314 252.826L184.682 246.401C184.682 246.401 184.399 237.154 184.148 238.526L180.795 242.799C180.626 242.998 180.411 243.156 180.168 243.262C179.925 243.367 179.66 243.417 179.393 243.406C179.127 243.395 178.867 243.325 178.634 243.201C178.4 243.077 178.2 242.902 178.048 242.69C177.872 242.437 177.793 242.132 177.824 241.829C177.967 240.713 178.386 239.647 179.045 238.721L179.987 237.389C179.987 237.389 178.623 227.01 181.366 221.919L188.56 222.289Z" fill="#B86A4B"/>
<path d="M184.119 155.817L189.793 231.812L180.169 227.623L167.906 162.676L184.119 155.817Z" fill="#B86A4B"/>
<path d="M160.204 186.012L158.936 186.382L159.127 186.995L160.395 186.624L160.204 186.012Z" fill="#200100"/>
<path d="M164.779 205.023L164.375 203.735L165.643 203.365L166.046 204.653L164.779 205.023ZM163.972 202.449L163.569 201.162L164.836 200.789L165.239 202.076L163.972 202.449ZM163.164 199.873L162.76 198.585L164.028 198.215L164.431 199.503L163.164 199.873ZM162.357 197.297L161.954 196.009L163.221 195.639L163.624 196.927L162.357 197.297ZM161.55 194.721L161.147 193.433L162.414 193.063L162.817 194.351L161.55 194.721ZM160.742 192.147L160.339 190.859L161.606 190.489L162.009 191.777L160.742 192.147ZM159.935 189.571L159.532 188.283L160.799 187.913L161.202 189.201L159.935 189.571Z" fill="#200100"/>
<path d="M166.449 205.94L165.182 206.313L165.375 206.925L166.642 206.553L166.449 205.94Z" fill="#200100"/>
<path d="M185.472 167.971L182.262 127.42C181.993 124.034 180.896 120.758 179.061 117.862C177.226 114.966 174.706 112.533 171.708 110.764C168.193 108.68 164.381 107.106 160.394 106.091C154.211 104.672 147.877 103.962 141.523 103.976C141.523 103.976 134.85 121.799 125.316 103.976L112.162 108.262C108.381 109.494 104.903 111.466 101.943 114.054C98.9843 116.642 96.6078 119.792 94.9619 123.307L80.7471 145.923V172.601L111.192 146.522L122.774 171.581H157.73L165.451 145.923L168.264 167.971L185.472 167.971Z" fill="#DF382B"/>
<path d="M104.025 132.554C105.628 134.658 107.026 136.901 108.202 139.253C109.43 141.581 110.432 144.014 111.192 146.521C109.588 144.419 108.189 142.176 107.016 139.822C105.79 137.494 104.789 135.061 104.025 132.554ZM165.451 145.923C165.934 142.816 166.662 139.748 167.631 136.749C168.542 133.732 169.694 130.789 171.077 127.945C170.597 131.053 169.868 134.121 168.897 137.12C167.983 140.135 166.831 143.078 165.451 145.923Z" fill="#B7251D"/>
<path d="M76.1372 98.4858L66.2217 104.724L62.8943 163.312C62.7551 165.373 63.2316 167.43 64.267 169.237C65.3024 171.044 66.853 172.525 68.7342 173.504C70.6155 174.482 72.748 174.918 74.8778 174.758C77.0076 174.598 79.0449 173.849 80.7471 172.601C84.6922 164.02 85.9329 154.505 84.3138 145.245L76.1372 98.4858Z" fill="#B86A4B"/>
<path d="M77.1299 108.863C77.1299 108.863 79.7412 105.167 78.3849 95.3823C77.0287 85.5973 74.8827 78.0366 74.1854 84.9634L73.7444 90.2504C73.7444 90.2504 69.3615 83.5391 67.1126 79.3198C66.5344 78.1916 65.5968 77.2728 64.438 76.6986C63.2791 76.1245 61.9603 75.9253 60.6756 76.1305C58.2767 76.5661 57.1524 78.1152 58.7636 83.4478C61.1733 91.4234 64.9881 103.67 66.1791 105.471C66.5917 106.095 77.1299 108.863 77.1299 108.863Z" fill="#B86A4B"/>
<path d="M76.0549 94.5066C75.5173 93.8873 75.0546 93.2106 74.6758 92.4897C74.2917 91.7739 73.9798 91.024 73.7446 90.2503C74.3513 90.8182 74.8538 91.4816 75.2308 92.2122C75.6215 92.9333 75.8993 93.7066 76.0549 94.5066Z" fill="#160B07"/>
<path d="M167.439 408.836L173.126 284.474L173.612 210.681C177.172 216.64 174.503 201.839 168.263 188.327C165.533 182.187 161.875 176.472 157.408 171.372H122.453L112.82 188.049C106.161 199.577 101.694 212.167 99.6317 225.22L75.2252 397.576L73.2269 408.836L53.5601 422.895C53.5601 422.895 76.6784 430.962 88.3567 418.977L85.9734 408.375L137.667 212.857H139.556L154.693 408.375L152.309 418.977C163.988 430.962 187.106 422.895 187.106 422.895L167.439 408.836Z" fill="#B86A4B"/>
<path d="M194.733 430.731C194.733 430.731 168.755 431.203 162.558 425.551V430.741H151.118C151.118 430.741 147.524 412.239 153.611 413.188C159.698 414.137 181.366 430.134 181.853 419.14L190.353 423.371C191.673 424.027 192.779 425.023 193.552 426.248C194.324 427.472 194.733 428.879 194.733 430.314V430.731Z" fill="#DF382B"/>
<path d="M122.597 171.372L112.964 188.049C106.306 199.577 101.839 212.167 99.7762 225.22L90.4062 284.445L174.752 284.474L176.757 231.428C177.414 216.633 174.558 201.889 168.407 188.327C165.678 182.187 162.02 176.472 157.553 171.372L122.597 171.372Z" fill="#4285F4"/>
<path d="M45.9336 430.731C45.9336 430.731 71.9119 431.203 78.1086 425.551V430.741H89.5486C89.5486 430.741 93.1425 412.239 87.0556 413.188C80.9686 414.137 59.3007 430.134 58.8138 419.14L50.3134 423.371C48.9942 424.027 47.8876 425.023 47.1149 426.248C46.3423 427.472 45.9336 428.879 45.9336 430.314V430.731Z" fill="#DF382B"/>
<path d="M367.762 90.9111C366.915 91.3707 365.996 91.6914 365.041 91.8602C364.088 92.0439 363.115 92.1149 362.143 92.0715C361.16 92.0115 360.192 91.8122 359.269 91.48C358.345 91.1393 357.518 90.5904 356.858 89.8789C357.743 90.139 358.642 90.3527 359.55 90.5191C360.441 90.6435 361.322 90.7485 362.219 90.7942C364.019 90.8955 365.825 90.848 367.762 90.9111ZM364.96 68.3602C365.51 69.1426 365.94 69.9978 366.237 70.8991C366.562 71.8092 366.745 72.7613 366.78 73.7238C366.792 74.2512 366.712 74.7768 366.543 75.2786C366.442 75.5846 366.262 75.8607 366.02 76.0811C365.779 76.3015 365.483 76.4591 365.161 76.539C364.593 76.6234 364.012 76.5104 363.521 76.2202C363.083 75.9855 362.686 75.6867 362.343 75.3343C363.152 75.6298 364.028 75.7137 364.881 75.5775C365.344 75.3775 365.486 74.5841 365.456 73.7376C365.428 72.861 365.353 71.9865 365.233 71.1174C365.123 70.2208 365.006 69.313 364.96 68.3602ZM378.755 63.4298C378.755 63.4298 374.422 58.7751 369.155 62.4441L378.755 63.4298ZM361.054 62.568C361.054 62.568 356.532 58.0847 351.42 61.9545L361.054 62.568Z" fill="#200100"/>
<path d="M372.256 71.1198C373.002 71.1033 373.586 70.2132 373.56 69.1315C373.535 68.0499 372.91 67.1863 372.164 67.2027C371.418 67.2191 370.835 68.1093 370.86 69.191C370.886 70.2726 371.511 71.1362 372.256 71.1198Z" fill="#200100"/>
<path d="M356.835 70.9213C357.581 70.9049 358.165 70.0147 358.139 68.933C358.114 67.8514 357.489 66.9878 356.743 67.0042C355.997 67.0207 355.413 67.9108 355.439 68.9925C355.464 70.0741 356.089 70.9377 356.835 70.9213Z" fill="#200100"/>
<path d="M372.966 26.9138C372.703 26.9136 372.441 26.8787 372.188 26.8101C371.587 26.5795 371.041 26.2328 370.583 25.7912C370.125 25.3497 369.765 24.8224 369.526 24.2418C369.461 24.0845 369.464 23.9091 369.533 23.7536C369.602 23.5982 369.731 23.4755 369.894 23.4122C370.056 23.349 370.237 23.3504 370.399 23.4161C370.56 23.4818 370.687 23.6065 370.754 23.7629C370.76 23.778 371.402 25.2722 372.549 25.5786C372.898 25.6387 373.257 25.6197 373.597 25.5232C373.937 25.4266 374.25 25.2551 374.51 25.0221C374.65 24.92 374.827 24.8759 375.001 24.8996C375.175 24.9233 375.332 25.0128 375.437 25.1484C375.543 25.2841 375.589 25.4547 375.564 25.6228C375.54 25.791 375.447 25.9428 375.307 26.045C374.646 26.5747 373.824 26.88 372.966 26.9138ZM393.685 37.9336C392.611 37.8667 391.586 37.4797 390.75 36.8258C390.614 36.7175 390.529 36.5617 390.512 36.3926C390.496 36.2235 390.55 36.0551 390.662 35.9242C390.774 35.7934 390.935 35.7109 391.109 35.695C391.284 35.6791 391.459 35.7309 391.594 35.8392C392.284 36.3956 393.17 36.6729 394.066 36.6132C394.403 36.506 394.71 36.3244 394.962 36.0829C395.215 35.8414 395.405 35.5465 395.52 35.2215C395.556 35.1451 395.607 35.0764 395.671 35.0193C395.735 34.9622 395.81 34.9179 395.891 34.8887C395.973 34.8596 396.059 34.8462 396.146 34.8495C396.233 34.8527 396.319 34.8725 396.398 34.9076C396.476 34.9428 396.548 34.9926 396.607 35.0543C396.666 35.116 396.711 35.1883 396.742 35.2672C396.772 35.346 396.786 35.4298 396.782 35.5138C396.779 35.5978 396.758 35.6803 396.722 35.7567C396.529 36.2645 396.214 36.7204 395.802 37.0867C395.39 37.4529 394.894 37.7188 394.355 37.8624C394.135 37.9105 393.91 37.9344 393.685 37.9336ZM381.089 44.2081C380.016 44.1413 378.991 43.7542 378.155 43.1003C378.02 42.9919 377.936 42.8362 377.919 42.6674C377.903 42.4986 377.957 42.3305 378.069 42.2C378.181 42.0695 378.342 41.9872 378.516 41.9713C378.691 41.9553 378.864 42.007 379 42.115C379.692 42.667 380.575 42.9433 381.471 42.8877C381.808 42.7805 382.115 42.5989 382.367 42.3574C382.619 42.1159 382.81 41.821 382.924 41.496C382.997 41.3418 383.131 41.2221 383.296 41.1632C383.46 41.1044 383.643 41.1112 383.802 41.1822C383.961 41.2531 384.085 41.3825 384.146 41.5417C384.207 41.7009 384.2 41.877 384.127 42.0312C383.934 42.5391 383.618 42.9952 383.207 43.3615C382.795 43.7277 382.298 43.9936 381.759 44.1369C381.539 44.185 381.315 44.2089 381.089 44.2081ZM363.085 49.8962C362.012 49.8294 360.987 49.4424 360.151 48.7884L360.995 47.8031C361.686 48.3582 362.571 48.6346 363.466 48.5746C363.804 48.4675 364.111 48.2861 364.363 48.0445C364.615 47.803 364.806 47.508 364.92 47.1829L366.122 47.7181C365.929 48.226 365.614 48.6822 365.202 49.0486C364.79 49.415 364.294 49.6812 363.755 49.825C363.535 49.8725 363.31 49.8964 363.085 49.8962ZM388.479 56.7546C388.189 56.7549 387.901 56.7127 387.624 56.6296C387.03 56.3832 386.493 56.0222 386.048 55.5686C385.603 55.1149 385.258 54.5782 385.034 53.9912C385.004 53.9124 384.99 53.8286 384.993 53.7446C384.996 53.6605 385.017 53.5779 385.053 53.5015C385.089 53.425 385.14 53.3562 385.204 53.299C385.268 53.2417 385.343 53.1972 385.424 53.1679C385.506 53.1385 385.592 53.125 385.679 53.1281C385.766 53.1312 385.852 53.1508 385.931 53.1858C386.01 53.2208 386.081 53.2706 386.14 53.3322C386.199 53.3938 386.245 53.466 386.276 53.5448C386.281 53.5599 386.881 55.0703 388.019 55.4067C388.366 55.4787 388.726 55.4706 389.07 55.3831C389.414 55.2955 389.731 55.131 389.997 54.9028C390.068 54.8538 390.148 54.8188 390.233 54.7999C390.318 54.7809 390.406 54.7784 390.492 54.7924C390.578 54.8064 390.66 54.8368 390.734 54.8816C390.808 54.9265 390.872 54.985 390.922 55.0538C390.973 55.1226 391.009 55.2004 391.028 55.2826C391.047 55.3649 391.049 55.45 391.035 55.5331C391.02 55.6162 390.988 55.6956 390.941 55.7668C390.895 55.8381 390.834 55.8997 390.762 55.9481C390.107 56.4409 389.309 56.7229 388.479 56.7546ZM355.698 23.1989C355.408 23.1985 355.121 23.1564 354.844 23.0739C354.25 22.8275 353.713 22.4665 353.268 22.0129C352.823 21.5592 352.478 21.0225 352.254 20.4355C352.193 20.2764 352.2 20.1002 352.273 19.9458C352.346 19.7913 352.48 19.6713 352.644 19.6121C352.809 19.553 352.991 19.5594 353.151 19.6301C353.31 19.7008 353.434 19.83 353.496 19.9891C353.501 20.0042 354.101 21.5146 355.239 21.851C355.586 21.9206 355.945 21.9113 356.288 21.8238C356.631 21.7364 356.948 21.5732 357.214 21.3471C357.285 21.297 357.366 21.261 357.451 21.2411C357.536 21.2213 357.624 21.218 357.711 21.2315C357.798 21.245 357.881 21.275 357.955 21.3197C358.03 21.3645 358.094 21.4231 358.145 21.4921C358.196 21.5612 358.232 21.6393 358.251 21.722C358.271 21.8047 358.273 21.8903 358.258 21.9739C358.243 22.0574 358.211 22.1372 358.163 22.2086C358.116 22.28 358.055 22.3416 357.983 22.3899C357.327 22.8843 356.528 23.1672 355.698 23.1989ZM336.949 40.7157C336.659 40.716 336.371 40.6738 336.094 40.5907C335.5 40.344 334.964 39.9828 334.519 39.5292C334.074 39.0756 333.729 38.5391 333.505 37.9523C333.445 37.7934 333.452 37.6178 333.526 37.4641C333.599 37.3103 333.732 37.1909 333.896 37.1319C334.06 37.0729 334.242 37.0791 334.401 37.1492C334.561 37.2193 334.685 37.3475 334.747 37.5059C334.752 37.5209 335.352 39.0314 336.488 39.3678C336.836 39.4386 337.196 39.4299 337.539 39.3425C337.883 39.255 338.2 39.0911 338.467 38.8639C338.538 38.8152 338.618 38.7805 338.703 38.7618C338.787 38.7431 338.875 38.7408 338.961 38.7549C339.047 38.7691 339.129 38.7994 339.203 38.8442C339.276 38.889 339.34 38.9475 339.39 39.0161C339.441 39.0848 339.476 39.1624 339.496 39.2444C339.515 39.3265 339.517 39.4114 339.503 39.4944C339.488 39.5773 339.456 39.6566 339.41 39.7278C339.364 39.799 339.303 39.8606 339.232 39.9092C338.577 40.402 337.778 40.684 336.949 40.7157ZM335.03 58.6965C334.74 58.6967 334.452 58.6546 334.175 58.5714C333.581 58.3247 333.045 57.9636 332.6 57.51C332.155 57.0564 331.81 56.5198 331.586 55.9331C331.525 55.7739 331.532 55.5978 331.605 55.4433C331.678 55.2889 331.812 55.1689 331.976 55.1097C332.141 55.0505 332.323 55.057 332.483 55.1277C332.642 55.1984 332.767 55.3275 332.828 55.4867C332.833 55.5017 333.433 57.0122 334.569 57.3486C334.917 57.4198 335.277 57.4114 335.621 57.3239C335.964 57.2364 336.282 57.0723 336.548 56.8447C336.619 56.7961 336.699 56.7614 336.784 56.7428C336.869 56.7242 336.956 56.7219 337.042 56.736C337.128 56.7502 337.21 56.7806 337.283 56.8254C337.357 56.8702 337.421 56.9286 337.471 56.9972C337.521 57.0658 337.557 57.1434 337.576 57.2254C337.596 57.3074 337.598 57.3923 337.583 57.4752C337.569 57.5581 337.537 57.6374 337.491 57.7086C337.445 57.7797 337.384 57.8414 337.313 57.89C336.658 58.3828 335.859 58.6648 335.03 58.6965ZM352.254 36.3169C351.065 36.2175 349.952 35.7076 349.119 34.8801C348.997 34.7579 348.93 34.5939 348.933 34.4241C348.936 34.2544 349.009 34.0928 349.136 33.9749C349.262 33.857 349.432 33.7924 349.607 33.7955C349.783 33.7985 349.95 33.8689 350.072 33.9911C350.7 34.6089 351.543 34.978 352.438 35.0264C352.786 34.9565 353.112 34.8093 353.391 34.5964C353.669 34.3835 353.893 34.1107 354.044 33.7998C354.135 33.6548 354.282 33.5507 354.452 33.5103C354.622 33.4699 354.802 33.4965 354.952 33.5843C355.103 33.6721 355.21 33.8139 355.252 33.9785C355.294 34.1432 355.267 34.3173 355.177 34.4625C354.926 34.9463 354.56 35.3653 354.108 35.6848C353.657 36.0042 353.133 36.2149 352.58 36.2994C352.472 36.3107 352.363 36.3166 352.254 36.3169Z" fill="#560D0D"/>
<path d="M340.867 73.348C340.816 72.8047 340.941 72.2594 341.227 71.7887C341.517 71.2751 341.97 70.865 342.519 70.6184C342.809 70.4915 343.123 70.4246 343.441 70.422C343.759 70.4194 344.074 70.4812 344.366 70.6034C344.902 70.8134 345.34 71.206 345.597 71.7068C345.02 71.6612 344.557 71.5618 344.134 71.5768C343.76 71.5621 343.388 71.6355 343.05 71.7906C342.257 72.2182 341.524 72.7415 340.867 73.348ZM381.238 58.7885C381.238 58.7885 374.871 57.2677 373.045 47.2226C373.045 47.2226 372.488 59.5697 345.785 58.3224L345.538 69.2105L339.353 60.7608C339.353 60.7608 345.531 38.0448 366.572 40.3535C369.943 40.8154 373.141 42.0863 375.874 44.0503C379.231 46.3947 382.043 49.3918 384.13 52.8492C386.218 56.3067 387.535 60.148 387.996 64.1267L388.275 66.3103C388.275 66.3103 383.717 59.2515 380.46 71.8918L381.238 58.7885Z" fill="#200100"/>
<path d="M346.657 49.381C345.584 49.3142 344.559 48.9272 343.723 48.2732C343.588 48.1648 343.503 48.0091 343.487 47.8403C343.471 47.6716 343.525 47.5034 343.637 47.3729C343.748 47.2424 343.909 47.1601 344.084 47.1442C344.258 47.1282 344.432 47.1799 344.567 47.2879C345.255 47.8475 346.142 48.1248 347.038 48.0606C347.376 47.9536 347.683 47.7722 347.935 47.5306C348.188 47.2891 348.379 46.9941 348.493 46.6689C348.566 46.5147 348.7 46.395 348.865 46.3362C349.03 46.2773 349.212 46.2841 349.371 46.3551C349.53 46.4261 349.654 46.5554 349.715 46.7146C349.776 46.8738 349.769 47.0499 349.696 47.2041C349.503 47.7121 349.187 48.1682 348.775 48.5345C348.363 48.9007 347.866 49.1665 347.327 49.3098C347.107 49.3579 346.882 49.3818 346.657 49.381ZM365.041 48.9772C363.968 48.9104 362.943 48.5233 362.107 47.8693C361.973 47.7608 361.889 47.6052 361.873 47.4367C361.857 47.2681 361.911 47.1003 362.022 46.97C362.134 46.8397 362.294 46.7574 362.469 46.7413C362.643 46.7252 362.817 46.7765 362.952 46.884C363.644 47.4355 364.528 47.7118 365.423 47.6567C365.76 47.5495 366.067 47.368 366.319 47.1264C366.571 46.8849 366.762 46.59 366.876 46.265C366.95 46.1108 367.083 45.9911 367.248 45.9323C367.413 45.8734 367.595 45.8802 367.754 45.9512C367.914 46.0222 368.037 46.1515 368.098 46.3107C368.159 46.47 368.152 46.646 368.079 46.8002C367.886 47.3082 367.571 47.7642 367.159 48.1305C366.747 48.4967 366.251 48.7626 365.711 48.9059C365.491 48.954 365.267 48.9779 365.041 48.9772ZM394.422 69.2274C393.349 69.1605 392.323 68.7734 391.487 68.1195C391.352 68.011 391.267 67.8554 391.251 67.6867C391.235 67.518 391.289 67.35 391.401 67.2194C391.512 67.0889 391.673 67.0065 391.847 66.9903C392.022 66.9741 392.196 67.0254 392.331 67.1329C393.022 67.6874 393.907 67.9644 394.803 67.9069C395.141 67.7997 395.447 67.6182 395.7 67.3767C395.952 67.1351 396.143 66.8402 396.257 66.5152C396.33 66.361 396.464 66.2413 396.629 66.1825C396.793 66.1236 396.975 66.1304 397.135 66.2014C397.294 66.2724 397.418 66.4017 397.479 66.5609C397.54 66.7202 397.533 66.8963 397.459 67.0505C397.266 67.5583 396.951 68.0142 396.539 68.3804C396.127 68.7467 395.631 69.0126 395.092 69.1561C394.872 69.2042 394.647 69.2281 394.422 69.2274Z" fill="#560D0D"/>
<path d="M386.63 72.3402C385.945 71.7634 385.188 71.273 384.376 70.881C384.031 70.7407 383.656 70.6839 383.283 70.7153C382.86 70.7184 382.402 70.8385 381.828 70.9091C382.061 70.3976 382.48 69.9862 383.005 69.7525C383.291 69.6177 383.603 69.5423 383.921 69.531C384.239 69.5197 384.556 69.5728 384.851 69.6868C385.411 69.9087 385.883 70.2986 386.197 70.7991C386.504 71.2564 386.656 71.7954 386.63 72.3402Z" fill="#200100"/>
<path d="M385.384 66.1888C385.073 62.8731 384.453 59.5915 383.528 56.3844C382.66 53.2305 381.319 50.2165 379.548 47.4385C377.851 44.743 375.412 42.5574 372.504 41.1265C369.569 39.7986 366.314 39.2703 363.091 39.5985C359.812 39.8849 356.631 40.8301 353.751 42.3735C350.871 43.917 348.356 46.0247 346.367 48.562C344.345 51.1455 342.925 54.1214 342.204 57.2854C341.492 60.5266 341.287 63.8529 341.596 67.1529C340.738 63.8556 340.511 60.4343 340.925 57.0578C341.38 53.6012 342.666 50.2958 344.68 47.4066C346.728 44.4835 349.423 42.0376 352.569 40.2461C355.716 38.4545 359.235 37.3622 362.871 37.0483C364.705 36.9153 366.549 36.9949 368.364 37.2852C370.204 37.564 371.984 38.133 373.634 38.9695C376.889 40.6724 379.557 43.2591 381.311 46.4107C383.015 49.4342 384.19 52.7094 384.788 56.1038C385.414 59.4291 385.613 62.8163 385.384 66.1888Z" fill="#23893C"/>
<path d="M372.502 78.6243C373.017 78.6071 373.504 78.3972 373.862 78.0389C374.22 77.6806 374.42 77.2019 374.42 76.7037C374.42 76.2055 374.22 75.7268 373.862 75.3685C373.504 75.0102 373.017 74.8003 372.502 74.7831C371.987 74.8003 371.499 75.0102 371.141 75.3685C370.783 75.7268 370.583 76.2055 370.583 76.7037C370.583 77.2019 370.783 77.6806 371.141 78.0389C371.499 78.3972 371.987 78.6071 372.502 78.6243ZM355.818 77.3951C356.333 77.3779 356.821 77.168 357.179 76.8097C357.537 76.4514 357.737 75.9727 357.737 75.4745C357.737 74.9763 357.537 74.4977 357.179 74.1393C356.821 73.781 356.333 73.5711 355.818 73.5539C355.304 73.5711 354.816 73.781 354.458 74.1393C354.1 74.4977 353.9 74.9763 353.9 75.4745C353.9 75.9727 354.1 76.4514 354.458 76.8097C354.816 77.168 355.304 77.3779 355.818 77.3951Z" fill="#602922"/>
<path d="M404.726 430.99C404.726 430.99 378.748 431.462 372.551 425.81V431H361.111C361.111 431 357.517 412.498 363.604 413.447C369.691 414.396 391.359 430.393 391.846 419.399L400.347 423.63C401.666 424.286 402.772 425.282 403.545 426.507C404.318 427.731 404.726 429.139 404.726 430.573V430.99ZM274.464 430.99C274.464 430.99 300.442 431.462 306.639 425.81V431H318.079C318.079 431 321.673 412.498 315.586 413.447C309.499 414.396 287.831 430.393 287.344 419.399L278.844 423.63C277.524 424.286 276.418 425.282 275.645 426.507C274.873 427.731 274.464 429.139 274.464 430.573V430.99Z" fill="#FABB05"/>
<path d="M374.897 186.163C374.755 186.164 374.617 186.119 374.502 186.038C374.388 185.956 374.305 185.841 374.263 185.71L373.687 183.871C373.66 183.791 373.651 183.706 373.659 183.622C373.667 183.538 373.692 183.456 373.733 183.381C373.774 183.306 373.83 183.24 373.897 183.186C373.964 183.132 374.042 183.092 374.126 183.067C374.209 183.043 374.297 183.034 374.384 183.043C374.471 183.051 374.556 183.076 374.633 183.116C374.71 183.156 374.778 183.211 374.833 183.277C374.888 183.342 374.929 183.418 374.954 183.499L375.53 185.337C375.561 185.433 375.567 185.534 375.55 185.632C375.532 185.731 375.491 185.824 375.429 185.905C375.367 185.985 375.287 186.05 375.195 186.095C375.102 186.14 375 186.164 374.897 186.163L374.897 186.163ZM379.125 199.657C378.983 199.657 378.845 199.613 378.731 199.531C378.617 199.449 378.533 199.334 378.492 199.203L377.434 195.829C377.384 195.667 377.403 195.493 377.486 195.344C377.569 195.195 377.709 195.084 377.876 195.035C378.043 194.986 378.224 195.003 378.378 195.082C378.533 195.161 378.649 195.295 378.701 195.456L379.759 198.83C379.789 198.926 379.795 199.027 379.778 199.126C379.76 199.224 379.719 199.317 379.657 199.398C379.596 199.478 379.515 199.543 379.423 199.588C379.331 199.633 379.229 199.657 379.125 199.657H379.125ZM377.011 192.911C376.869 192.911 376.731 192.867 376.617 192.785C376.503 192.703 376.419 192.588 376.377 192.457L375.32 189.083C375.27 188.921 375.289 188.747 375.372 188.598C375.455 188.449 375.595 188.338 375.762 188.289C375.929 188.24 376.11 188.257 376.264 188.336C376.419 188.415 376.535 188.549 376.587 188.711L377.645 192.084C377.675 192.18 377.681 192.281 377.664 192.38C377.646 192.478 377.605 192.571 377.543 192.652C377.482 192.732 377.401 192.797 377.309 192.842C377.216 192.887 377.114 192.911 377.011 192.911L377.011 192.911ZM380.758 204.867C380.616 204.867 380.478 204.823 380.363 204.741C380.249 204.659 380.166 204.543 380.125 204.412L379.549 202.574C379.523 202.493 379.514 202.408 379.522 202.324C379.53 202.24 379.555 202.158 379.596 202.083C379.637 202.009 379.693 201.943 379.761 201.889C379.828 201.835 379.906 201.795 379.99 201.771C380.073 201.746 380.161 201.738 380.248 201.747C380.335 201.755 380.419 201.78 380.496 201.821C380.573 201.861 380.641 201.915 380.696 201.981C380.751 202.047 380.792 202.122 380.816 202.204L381.392 204.042C381.417 204.122 381.425 204.207 381.417 204.29C381.408 204.374 381.383 204.455 381.342 204.529C381.3 204.603 381.245 204.669 381.177 204.722C381.11 204.775 381.033 204.815 380.95 204.839C380.888 204.858 380.823 204.867 380.758 204.867Z" fill="#B7251D"/>
<path d="M391.217 130.043C390.453 132.55 389.452 134.983 388.226 137.311C387.053 139.665 385.654 141.908 384.05 144.01C384.81 141.503 385.812 139.069 387.04 136.742C388.216 134.389 389.614 132.147 391.217 130.043ZM329.791 143.412C328.411 140.567 327.259 137.624 326.345 134.608C325.374 131.609 324.645 128.542 324.166 125.433C325.548 128.277 326.7 131.221 327.612 134.237C328.58 137.237 329.308 140.304 329.791 143.412Z" fill="#23893C"/>
<path d="M370.14 81.7004C370.14 81.7004 366.458 89.767 359.069 83.0833L370.14 81.7004Z" fill="#200100"/>
<path d="M492.382 187.361V398.782H463.147L459.334 214.403H451.707L437.089 398.782H407.854L420.565 187.361H492.382Z" fill="#FABB05"/>
<path d="M417.069 110.536C417.342 113.43 417.47 116.324 417.576 119.218C417.697 122.111 417.714 125.005 417.73 127.899C417.716 130.792 417.698 133.686 417.578 136.579L417.393 140.92C417.283 142.367 417.219 143.814 417.069 145.261C416.919 143.814 416.854 142.367 416.744 140.92L416.56 136.579C416.44 133.686 416.422 130.792 416.407 127.899C416.424 125.005 416.441 122.111 416.562 119.218C416.668 116.324 416.796 113.43 417.069 110.536ZM494.607 112.073C494.933 117.32 495.114 122.568 495.272 127.817C495.434 133.066 495.477 138.316 495.586 143.565C495.587 148.815 495.645 154.064 495.593 159.315L495.487 167.191C495.404 169.817 495.366 172.443 495.242 175.069C495.066 172.445 494.975 169.821 494.838 167.197L494.574 159.325C494.416 154.076 494.368 148.827 494.263 143.577C494.266 138.327 494.203 133.077 494.259 127.827C494.312 122.576 494.387 117.325 494.607 112.073Z" fill="#2C66BF"/>
<path d="M430.733 406.157C430.733 406.157 438.677 427.668 432.004 430.741H425.331C425.331 430.741 422.153 422.136 417.704 430.741H377.028C377.028 430.741 374.486 423.98 384.337 420.907C394.189 417.834 410.713 406.157 410.713 406.157H430.733Z" fill="#34A853"/>
<path d="M432.005 398.782L430.733 406.157H410.713V398.782H432.005Z" fill="#ECA085"/>
<path d="M468.063 406.157C468.063 406.157 460.119 427.668 466.792 430.741H473.465C473.465 430.741 476.643 422.136 481.092 430.741H521.767C521.767 430.741 524.31 423.98 514.459 420.907C504.607 417.834 488.083 406.157 488.083 406.157H468.063Z" fill="#34A853"/>
<path d="M466.792 398.782L468.063 406.157H488.083V398.782H466.792Z" fill="#ECA085"/>
<path d="M449.866 213.877C451.992 213.425 454.165 213.21 456.341 213.236C458.518 213.207 460.69 213.422 462.816 213.877C460.69 214.331 458.518 214.546 456.341 214.516C454.165 214.543 451.992 214.328 449.866 213.877Z" fill="#EDA606"/>
<path d="M413.171 142.131L417.069 145.875L417.281 159.291C417.281 159.291 405.603 165.454 401.845 155.549L413.171 142.131Z" fill="#8C4D3E"/>
<path d="M343.847 87.0055H338.363V75.6332H343.847V87.0055ZM339.356 86.0452H342.854V76.5935H339.356V86.0452ZM388.771 86.3666H383.286V74.9942H388.771V86.3666ZM384.279 85.4063H387.778V75.9545H384.279V85.4063Z" fill="#FABB05"/>
<path d="M384.276 75.9388V74.5992H387.61C386.857 75.8468 385.678 76.8013 384.276 77.2977V75.9388ZM342.884 78.1086V75.6075H339.741C340.452 76.7722 341.565 77.6577 342.884 78.1086Z" fill="#8C4D3E"/>
<path d="M119.899 104.556L121.585 108.516C121.985 109.45 122.126 110.469 121.996 111.473C121.866 112.476 121.468 113.43 120.842 114.24C120.582 114.584 120.28 114.895 119.941 115.167C119.452 115.581 118.895 115.914 118.293 116.153L112.341 118.522C112.132 118.607 111.916 118.676 111.696 118.728C111.301 118.851 110.89 118.921 110.476 118.935C109.206 119.031 107.937 118.735 106.853 118.088C105.769 117.442 104.925 116.479 104.444 115.339L102.758 111.379C102.393 110.518 102.395 109.552 102.765 108.693C103.136 107.834 103.843 107.152 104.733 106.797L115.161 102.646C116.051 102.292 117.05 102.295 117.939 102.653C118.827 103.011 119.532 103.695 119.899 104.556Z" fill="#FED4C0"/>
<path d="M120.842 114.24C120.582 114.584 120.28 114.895 119.941 115.167L116.617 107.634C116.556 107.491 116.556 107.331 116.617 107.189C116.677 107.046 116.794 106.933 116.94 106.873C117.087 106.812 117.253 106.811 117.401 106.868C117.549 106.925 117.667 107.036 117.731 107.178L120.842 114.24ZM117.935 116.295L116.816 116.74L113.393 109.006C113.332 108.862 113.333 108.701 113.395 108.558C113.456 108.415 113.574 108.301 113.722 108.242C113.795 108.212 113.872 108.196 113.951 108.195C114.03 108.195 114.108 108.209 114.181 108.237C114.254 108.266 114.32 108.308 114.376 108.362C114.432 108.415 114.477 108.479 114.507 108.549L117.935 116.295ZM114.646 117.604L113.527 118.05L110.193 110.494C110.161 110.425 110.144 110.349 110.142 110.273C110.141 110.196 110.156 110.12 110.185 110.05C110.215 109.979 110.259 109.914 110.315 109.86C110.371 109.806 110.438 109.764 110.511 109.735L110.522 109.731C110.669 109.674 110.832 109.675 110.978 109.732C111.125 109.789 111.242 109.899 111.307 110.038L114.646 117.604ZM111.696 118.728C111.301 118.851 110.89 118.921 110.476 118.935L107.05 111.164C106.986 111.021 106.983 110.86 107.042 110.716C107.101 110.572 107.216 110.456 107.363 110.393C107.437 110.361 107.516 110.343 107.597 110.341C107.678 110.34 107.758 110.354 107.833 110.383C107.908 110.413 107.976 110.456 108.033 110.512C108.09 110.568 108.135 110.634 108.164 110.707L111.696 118.728Z" fill="#200100"/>
<path d="M392.52 109.914L390.806 113.863C390.403 114.796 389.756 115.612 388.929 116.23C388.101 116.849 387.122 117.249 386.086 117.391C385.651 117.455 385.209 117.468 384.771 117.428C384.122 117.384 383.486 117.237 382.886 116.993L376.951 114.584C376.741 114.501 376.539 114.401 376.345 114.287C375.976 114.103 375.636 113.871 375.333 113.596C374.367 112.794 373.689 111.715 373.399 110.516C373.108 109.317 373.218 108.059 373.715 106.925L375.429 102.976C375.802 102.118 376.512 101.439 377.403 101.087C378.294 100.735 379.293 100.739 380.181 101.098L390.578 105.319C391.465 105.68 392.168 106.367 392.532 107.228C392.896 108.09 392.892 109.056 392.52 109.914Z" fill="#FED4C0"/>
<path d="M386.086 117.391C385.651 117.455 385.209 117.468 384.771 117.428L387.949 109.835C388.011 109.693 388.128 109.581 388.275 109.522C388.422 109.463 388.587 109.463 388.735 109.521C388.882 109.579 389 109.691 389.062 109.833C389.125 109.974 389.127 110.134 389.069 110.277L386.086 117.391ZM382.529 116.848L381.414 116.395L384.669 108.593C384.732 108.45 384.85 108.337 384.998 108.278C385.147 108.22 385.313 108.22 385.461 108.28C385.534 108.308 385.601 108.35 385.657 108.404C385.713 108.457 385.757 108.521 385.788 108.591C385.818 108.661 385.834 108.737 385.835 108.813C385.835 108.889 385.82 108.964 385.79 109.035L382.529 116.848ZM379.249 115.516L378.134 115.064L381.321 107.449C381.349 107.378 381.392 107.313 381.447 107.258C381.503 107.203 381.569 107.16 381.641 107.13C381.714 107.101 381.793 107.086 381.872 107.086C381.951 107.086 382.029 107.102 382.101 107.132L382.113 107.136C382.257 107.197 382.372 107.309 382.434 107.45C382.495 107.591 382.498 107.749 382.441 107.891L379.249 115.516ZM376.345 114.287C375.976 114.103 375.635 113.871 375.333 113.596L378.613 105.767C378.673 105.623 378.789 105.507 378.936 105.446C379.083 105.384 379.249 105.381 379.399 105.438C379.475 105.466 379.544 105.508 379.602 105.562C379.66 105.616 379.707 105.681 379.738 105.753C379.769 105.826 379.785 105.903 379.784 105.981C379.784 106.06 379.766 106.137 379.734 106.208L376.345 114.287Z" fill="#200100"/>
<path d="M492.815 82.0958L491.101 86.0446C490.698 86.9778 490.051 87.7937 489.223 88.4121C488.396 89.0306 487.416 89.4304 486.381 89.5724C485.945 89.6369 485.504 89.6493 485.065 89.6092C484.417 89.5653 483.78 89.4185 483.181 89.1745L477.246 86.7653C477.036 86.6824 476.833 86.5831 476.64 86.4685C476.271 86.2847 475.93 86.0523 475.627 85.778C474.661 84.9754 473.984 83.8967 473.693 82.6976C473.402 81.4985 473.513 80.241 474.009 79.1067L475.723 75.1579C476.096 74.3 476.806 73.6205 477.697 73.2684C478.588 72.9163 479.587 72.9204 480.475 73.28L490.873 77.5007C491.76 77.8616 492.463 78.5482 492.827 79.4097C493.191 80.2713 493.186 81.2373 492.815 82.0958Z" fill="#8C4D3E"/>
<path d="M486.381 89.5724C485.946 89.6369 485.504 89.6493 485.066 89.6092L488.243 82.0165C488.305 81.8747 488.423 81.7622 488.57 81.7034C488.717 81.6446 488.882 81.6443 489.03 81.7025C489.177 81.7607 489.295 81.8727 489.357 82.0143C489.42 82.1559 489.422 82.3156 489.364 82.4589L486.381 89.5724ZM482.824 89.0296L481.708 88.5767L484.964 80.7745C485.026 80.6318 485.145 80.5187 485.293 80.4601C485.442 80.4014 485.608 80.402 485.756 80.4615C485.829 80.49 485.895 80.5321 485.952 80.5855C486.008 80.639 486.052 80.7026 486.083 80.7728C486.113 80.8429 486.129 80.9183 486.13 80.9944C486.13 81.0705 486.114 81.146 486.084 81.2163L482.824 89.0296ZM479.544 87.6981L478.429 87.2453L481.616 79.631C481.644 79.5597 481.687 79.4947 481.742 79.4399C481.797 79.3851 481.863 79.3416 481.936 79.312C482.009 79.2824 482.087 79.2672 482.166 79.2675C482.246 79.2677 482.324 79.2833 482.396 79.3134L482.408 79.318C482.552 79.3786 482.667 79.4909 482.729 79.6316C482.79 79.7722 482.792 79.9303 482.736 80.0728L479.544 87.6981ZM476.64 86.4684C476.271 86.2847 475.93 86.0523 475.627 85.778L478.908 77.9483C478.968 77.8043 479.084 77.6889 479.231 77.6274C479.378 77.5658 479.544 77.5631 479.694 77.6197C479.769 77.6472 479.839 77.6893 479.897 77.7435C479.955 77.7977 480.002 77.8629 480.033 77.9351C480.064 78.0072 480.08 78.0848 480.079 78.163C480.079 78.2413 480.061 78.3186 480.028 78.3901L476.64 86.4684Z" fill="#200100"/>
<path d="M342.834 99.8258L344.427 103.822C344.805 104.765 344.923 105.786 344.769 106.787C344.616 107.787 344.196 108.732 343.551 109.528C343.283 109.866 342.974 110.171 342.629 110.436C342.13 110.838 341.565 111.159 340.958 111.385L334.952 113.624C334.742 113.705 334.524 113.769 334.303 113.816C333.905 113.93 333.493 113.991 333.078 113.996C331.806 114.065 330.545 113.741 329.476 113.071C328.407 112.401 327.586 111.42 327.132 110.27L325.538 106.274C325.193 105.405 325.218 104.439 325.608 103.589C325.999 102.738 326.722 102.072 327.62 101.736L338.141 97.8134C339.04 97.4793 340.038 97.5036 340.918 97.8809C341.798 98.2582 342.487 98.9577 342.834 99.8258Z" fill="#B86A4B"/>
<path d="M343.551 109.528C343.284 109.866 342.974 110.171 342.629 110.436L339.481 102.831C339.424 102.688 339.428 102.528 339.492 102.387C339.556 102.246 339.675 102.134 339.823 102.078C339.971 102.021 340.136 102.023 340.283 102.083C340.429 102.143 340.546 102.257 340.606 102.4L343.551 109.528ZM340.598 111.519L339.469 111.94L336.226 104.133C336.169 103.988 336.174 103.827 336.239 103.686C336.304 103.544 336.424 103.433 336.573 103.377C336.646 103.348 336.724 103.334 336.803 103.335C336.882 103.336 336.96 103.352 337.032 103.382C337.104 103.412 337.17 103.456 337.224 103.511C337.279 103.565 337.322 103.63 337.351 103.701L340.598 111.519ZM337.279 112.757L336.15 113.178L332.993 105.552C332.962 105.481 332.947 105.405 332.947 105.329C332.948 105.253 332.964 105.177 332.995 105.107C333.027 105.037 333.072 104.973 333.129 104.92C333.187 104.868 333.254 104.827 333.328 104.8L333.339 104.795C333.487 104.742 333.651 104.746 333.796 104.806C333.94 104.867 334.056 104.979 334.117 105.12L337.279 112.757ZM334.303 113.816C333.906 113.931 333.493 113.991 333.078 113.996L329.835 106.152C329.774 106.009 329.775 105.848 329.837 105.705C329.899 105.562 330.017 105.448 330.166 105.389C330.24 105.358 330.32 105.342 330.401 105.342C330.482 105.342 330.562 105.358 330.636 105.389C330.71 105.42 330.777 105.466 330.833 105.522C330.888 105.579 330.931 105.647 330.959 105.72L334.303 113.816Z" fill="#200100"/>
<path d="M0 430.741H572" stroke="#020202" stroke-miterlimit="10"/>
</svg>
