<svg width="115" height="40" viewBox="0 0 115 40" fill="none" xmlns="http://www.w3.org/2000/svg">
<path d="M87.0139 0.914352C85.0743 3.52332 80.1176 17.109 79.4095 21.786C79.04 24.0768 79.5326 25.0313 81.072 25.0313C82.0264 25.0313 82.2419 24.8404 83.9968 22.0724C85.7209 19.3362 88.9535 15.6136 88.5533 16.8227C88.4609 17.109 88.2146 18.4771 88.0299 19.8771C87.6912 22.1997 87.722 22.5815 88.2146 23.6632C88.6456 24.5223 89.1382 24.9995 89.9387 25.2859C91.4165 25.8586 92.494 25.5722 93.7563 24.2677L94.7415 23.2496L95.0802 23.9496C95.542 24.9995 97.1429 25.7631 98.436 25.5404C99.0209 25.445 100.068 24.9359 100.714 24.395C101.361 23.8541 101.884 23.4723 101.884 23.536C101.884 23.5996 101.484 24.9041 100.961 26.4313C98.3128 34.5445 97.8818 38.1398 99.452 39.3806C100.899 40.526 101.114 40.2397 101.114 37.1853C101.114 32.6673 103.362 25.9858 106.318 21.7542C107.949 19.3362 111.582 15.7091 112.136 15.9C112.721 16.1227 112.444 17.6817 111.428 19.8452C110.412 21.9451 109.058 23.1223 107.611 23.1223C107.026 23.1223 106.81 23.2814 106.81 23.7587C106.81 24.9677 108.873 25.445 110.474 24.5541C112.136 23.6632 114.815 19.3044 114.815 17.459C114.815 16.0591 113.891 14.5955 112.783 14.2137C111.859 13.8955 111.582 13.9273 110.381 14.6591C109.612 15.1046 108.38 16.25 107.58 17.1408C106.225 18.7317 106.164 18.7635 106.595 17.7135C106.841 17.109 107.487 15.6454 108.042 14.4364C109.119 12.082 109.119 11.5093 107.918 11.2866C107.303 11.1593 106.964 11.3184 106.533 11.8593C106.01 12.5592 102.808 20.5452 102.808 21.1497C102.808 21.5633 100.714 22.9314 99.3288 23.4723C96.9582 24.3314 96.3732 22.5496 97.7279 18.6044C98.9594 15.0727 98.9594 14.9455 98.1897 14.5319C97.8202 14.341 97.3276 14.2455 97.0813 14.341C96.4656 14.5955 95.542 16.8227 94.9262 19.4953C94.4028 21.9451 93.9103 22.6769 92.3709 23.3451C91.4473 23.7587 91.2626 23.7587 90.8623 23.3132C90.4313 22.8678 90.4313 22.5178 90.9239 19.6543C91.4165 16.7272 91.4165 16.409 90.9547 15.4864C89.6 12.7819 87.1371 13.641 84.0891 17.8726L82.7037 19.7816L82.9192 18.5089C83.2579 16.6954 85.9672 9.28212 87.9067 4.98688C89.3537 1.74158 89.5077 1.26434 89.1382 0.691639C88.4917 -0.294678 87.8452 -0.231045 87.0139 0.914352Z" fill="#1D1D1D"/>
<path d="M30.0576 1.80524C27.4407 3.93695 23.2228 13.9274 22.6379 19.3998C22.4224 21.3406 22.1145 21.7224 19.8362 22.8678C17.5272 23.9814 15.2489 24.1087 14.7564 23.1224C14.2638 22.1679 14.4793 20.7043 15.0642 20.8634C15.3105 20.9588 16.111 21.0225 16.8191 21.0225C18.9742 21.0861 20.9138 18.6999 20.9754 15.9C21.0062 14.0228 20.3904 13.4819 18.5432 13.6728C14.4793 14.1183 10.6924 20.927 12.9091 23.8223C13.7096 24.9041 15.3413 25.6677 16.8191 25.6677C18.2353 25.6677 20.7906 24.4587 21.8066 23.3133L22.5455 22.486L23.0689 23.7269C23.9617 25.6995 26.8865 26.5904 29.0108 25.4768C30.3039 24.7768 31.6893 23.4723 32.0896 22.486C32.3666 21.7542 32.3974 21.7542 32.5206 22.3269C32.8592 24.0132 33.3826 24.8086 34.5833 25.3813C36.9539 26.4949 39.263 25.8904 41.141 23.6632L42.0646 22.5815L42.3725 23.4723C43.019 25.2223 45.7899 25.5722 47.4216 24.1405C48.8994 22.8996 50.5311 20.9906 51.1776 19.8452C52.0089 18.2544 51.8549 17.4272 50.3772 15.9954C49.6691 15.2637 48.8378 14.3092 48.5299 13.8319C47.791 12.5911 46.8674 12.4002 45.9438 13.3228C44.9586 14.2773 42.9267 18.0317 42.4341 19.8452C42.157 20.9588 41.726 21.5315 40.4637 22.5178C37.9699 24.4587 35.784 24.8086 35.0759 23.4405C34.5525 22.4224 34.7373 21.9451 36.3998 20.1316C39.9095 16.3136 43.8195 8.61399 44.1889 4.73236C44.3737 2.95064 44.3429 2.75974 43.604 1.99614C42.3109 0.659842 40.8023 0.85074 39.2322 2.56884C36.8308 5.14598 33.4442 13.4819 32.5821 18.9862C32.2435 21.0225 32.1203 21.3088 30.9504 22.2633C29.3803 23.5996 28.7645 23.9496 27.3175 24.2041C26.3939 24.3632 26.0553 24.2996 25.5319 23.7587C24.6083 22.8042 24.7622 22.0406 26.24 20.4816C29.996 16.4727 33.8752 8.96397 34.3062 4.76418C34.5217 2.95064 34.491 2.75974 33.7521 1.99614C32.7669 0.978006 31.1967 0.882557 30.0576 1.80524ZM32.4898 4.25512C32.1203 6.32319 31.3507 8.55036 29.996 11.3502C28.4874 14.4046 25.4703 18.9862 25.3164 18.4453C24.8546 17.0772 31.2891 3.0779 32.3666 3.0779C32.5514 3.0779 32.6129 3.52333 32.4898 4.25512ZM42.157 5.40051C41.6028 7.75494 38.832 13.641 36.9231 16.3772C36.0611 17.6817 35.2606 18.6362 35.1683 18.5408C34.8296 18.1908 36.3998 13.991 38.6164 9.28214C41.6028 2.95064 43.0498 1.32799 42.157 5.40051ZM19.3744 15.8045C19.3744 16.3136 16.6652 18.9862 16.1418 18.9862C15.3721 18.9862 15.6184 18.509 17.2193 16.9499C18.6971 15.5182 19.3744 15.1682 19.3744 15.8045ZM49.238 17.0772C49.6075 17.3317 49.6075 17.459 49.238 18.2544C48.6839 19.3362 45.1125 23.1224 44.6507 23.1224C43.7579 23.1224 45.1433 19.018 46.5288 17.459C47.2061 16.7272 48.4376 16.5363 49.238 17.0772Z" fill="#1D1D1D"/>
<path d="M9.30748 2.47354C6.07482 2.88716 4.72018 3.90529 5.48987 5.40067C5.85931 6.10064 5.76695 6.64152 4.59704 10.2368C3.55027 13.4821 3.15004 14.3093 2.59587 14.532C1.5491 14.9457 1.39517 15.4229 1.82619 16.7592C2.16485 17.8728 2.10327 18.2864 1.08729 21.6272C-0.236557 25.986 -0.328919 27.1632 0.687059 27.545C1.64146 27.9268 2.44193 27.4178 2.44193 26.3678C2.44193 25.3497 3.36555 21.7544 4.28916 19.2409L4.90491 17.5228L8.19914 16.8228C11.5549 16.0911 12.9712 15.4229 13.1867 14.373C13.279 13.8321 13.0327 13.8321 9.70772 14.023C7.73733 14.1502 6.1364 14.1821 6.1364 14.1502C6.1364 13.8003 7.42946 9.72773 8.13757 7.88237C9.09197 5.2734 8.69174 5.43249 14.8492 5.05069C18.0203 4.82797 18.9439 4.66889 19.5904 4.15982C20.6988 3.30077 20.7911 2.82352 19.9291 2.63262C18.6668 2.34627 11.2779 2.25082 9.30748 2.47354Z" fill="#1D1D1D"/>
<path d="M99.1442 7.5003C98.2821 8.39116 98.159 10.7774 98.9287 11.6046C99.2365 11.9228 99.4828 11.7955 100.16 11.0637C101.299 9.8229 101.422 8.00937 100.437 7.30941C99.8523 6.89579 99.7291 6.89579 99.1442 7.5003Z" fill="#1D1D1D"/>
<path d="M56.7197 12.0502C56.535 12.2729 55.8269 13.5456 55.1496 14.85C52.3172 20.2589 52.1016 24.8086 54.5954 25.4768C56.0116 25.8268 57.4278 24.9041 59.1211 22.5179C59.9832 21.277 60.8452 20.2589 60.9991 20.2589C61.1531 20.2589 61.2147 20.3861 61.1223 20.5134C60.8144 21.0225 61.6149 23.6951 62.2614 24.3314C64.0471 26.0495 66.2945 24.6177 68.111 20.6407C69.6811 17.1408 69.0346 12.941 66.9103 12.941C66.8487 12.941 66.8795 13.5774 66.9719 14.3092C67.3721 17.2363 64.5705 23.8223 63.4621 22.6451C63.0311 22.2315 63.0311 18.2544 63.4313 17.4908C63.9855 16.4409 63.2774 15.0091 62.1691 15.0091C61.5533 15.0091 60.9068 15.7091 58.9364 18.4135C56.3195 22.0406 55.4882 23.0269 55.2727 22.7724C55.0264 22.5179 56.5658 18.3181 57.9204 15.55L59.2443 12.9092L58.5054 12.2729C57.6741 11.5729 57.1507 11.5093 56.7197 12.0502Z" fill="#1D1D1D"/>
<path d="M73.6839 13.6729C72.3909 14.8183 72.3601 17.0455 73.4992 20.8953C74.0226 22.5497 74.3612 23.9815 74.2689 24.0769C74.2073 24.1724 73.53 23.5361 72.8219 22.677C71.8983 21.5634 71.3749 21.1498 71.0054 21.3089C70.3281 21.5634 70.3589 22.1043 71.067 23.3133C72.2369 25.286 75.0078 26.9086 76.1161 26.2405C76.855 25.8268 76.7934 24.1724 75.8698 20.418C74.8231 16.1228 74.8846 14.8501 76.0545 14.8501C76.5164 14.8501 76.6395 15.0728 76.6395 16.091C76.6395 17.2364 77.2245 18.3499 77.8402 18.3499C78.3636 18.3499 78.7946 17.5227 78.7946 16.5364C78.7946 15.2319 78.0865 13.7047 77.286 13.2593C76.2393 12.6866 74.5768 12.8775 73.6839 13.6729Z" fill="#1D1D1D"/>
</svg>
