<svg width="13" height="13" viewBox="0 0 13 13" fill="none" xmlns="http://www.w3.org/2000/svg">
<path d="M11.9967 12.1264L9.22835 9.19271C12.0823 5.65377 9.64742 0.017907 5.22722 0.0464941C3.84558 0.0514058 2.52331 0.640586 1.55035 1.68484C0.577382 2.7291 0.0331302 4.1432 0.0369348 5.61707C0.0394276 10.3354 5.3386 12.8955 8.63709 9.82764L11.4166 12.7494C11.4977 12.8066 11.5948 12.8322 11.6914 12.8217C11.788 12.8113 11.8781 12.7654 11.9465 12.692C12.0149 12.6186 12.0572 12.5221 12.0664 12.419C12.0756 12.3159 12.0509 12.2125 11.9967 12.1264ZM0.877243 5.6031C0.87367 4.36674 1.33008 3.18041 2.14629 2.30448C2.96251 1.42854 4.07185 0.934579 5.23083 0.930994C11.0275 1.174 11.0636 9.98614 5.26898 10.2571C4.1095 10.2591 2.99572 9.77009 2.17227 8.89746C1.34882 8.02484 0.883044 6.83997 0.877243 5.6031Z" fill="#B5B5B5"/>
</svg>
